<svg width="101" height="30" viewBox="0 0 101 30" fill="none" xmlns="http://www.w3.org/2000/svg">
<path d="M1.12891 3.26367H6.06836C7.41211 3.26367 8.50977 3.67188 9.36133 4.48828C10.209 5.28906 10.6328 6.33789 10.6328 7.63477C10.6328 8.92383 10.209 9.97461 9.36133 10.7871C8.50586 11.5957 7.4082 12 6.06836 12H1.12891V3.26367ZM3.19141 5.03906V10.2246H5.95117C6.73633 10.2246 7.37305 9.98047 7.86133 9.49219C8.36523 9 8.61719 8.38086 8.61719 7.63477C8.61719 6.88477 8.36523 6.26367 7.86133 5.77148C7.37305 5.2832 6.73633 5.03906 5.95117 5.03906H3.19141Z" fill="#DAB16C"/>
<path d="M13.3984 3.26367H15.4609V12H13.3984V3.26367Z" fill="#DAB16C"/>
<path d="M27.3438 3.81445L26.623 5.58984C25.7012 5.04688 24.7051 4.77539 23.6348 4.77539C22.6074 4.77539 21.7988 5.02344 21.209 5.51953C20.6191 6.01562 20.3242 6.67969 20.3242 7.51172C20.3242 8.39453 20.6523 9.09766 21.3086 9.62109C21.9766 10.1523 22.8398 10.418 23.8984 10.418C25.1445 10.418 26.2734 10.0742 27.2852 9.38672V11.4258C26.2305 11.9531 25.0664 12.2168 23.793 12.2168C22.1172 12.2168 20.7715 11.793 19.7559 10.9453C18.7324 10.0938 18.2207 8.96484 18.2207 7.55859C18.2207 6.19922 18.7129 5.10742 19.6973 4.2832C20.6895 3.45117 22.0098 3.03516 23.6582 3.03516C24.9043 3.03516 26.1328 3.29492 27.3438 3.81445Z" fill="#DAB16C"/>
<path d="M29.9805 3.26367H32.043V12H29.9805V3.26367Z" fill="#DAB16C"/>
<path d="M36.3145 10.957C35.3066 10.1211 34.8027 9.01367 34.8027 7.63477C34.8027 6.25586 35.3066 5.14648 36.3145 4.30664C37.3379 3.4668 38.6699 3.04688 40.3105 3.04688C41.9512 3.04688 43.2832 3.4668 44.3066 4.30664C45.3223 5.14258 45.8301 6.25195 45.8301 7.63477C45.8301 9.01367 45.3223 10.1211 44.3066 10.957C43.2832 11.7969 41.9512 12.2168 40.3105 12.2168C38.6699 12.2168 37.3379 11.7969 36.3145 10.957ZM37.8555 9.68555C38.4805 10.2051 39.2949 10.4648 40.2988 10.4648C41.3027 10.4648 42.127 10.2051 42.7715 9.68555C43.4043 9.16211 43.7207 8.47852 43.7207 7.63477C43.7207 6.7832 43.4043 6.10156 42.7715 5.58984C42.1348 5.0625 41.3105 4.79883 40.2988 4.79883C39.2949 4.79883 38.4805 5.05859 37.8555 5.57812C37.2305 6.09766 36.918 6.7832 36.918 7.63477C36.918 8.48242 37.2305 9.16602 37.8555 9.68555Z" fill="#DAB16C"/>
<path d="M48.5898 3.26367H50.3066L55.6328 8.73633V3.26367H57.6367V12H56.0781L50.5938 6.35742V12H48.5898V3.26367Z" fill="#DAB16C"/>
<path d="M61.9082 12H59.7402L63.9648 3.26367H66.4082L70.6328 12H68.3887L67.5742 10.3066H62.7285L61.9082 12ZM65.1484 4.98047L63.4199 8.60156H66.877L65.1484 4.98047ZM64.3457 2.51953L65.1016 0.597656H67.5625L66.0273 2.51953H64.3457Z" fill="#DAB16C"/>
<path d="M72.7305 3.26367H78.0566C79.1895 3.26367 80.0645 3.5 80.6816 3.97266C81.2988 4.44531 81.6074 5.11328 81.6074 5.97656C81.6074 6.65234 81.418 7.2168 81.0391 7.66992C80.6641 8.12305 80.1309 8.42969 79.4395 8.58984L82.041 12H79.5098L77.1309 8.81836H75.4316L76.1992 7.03125H78.332C79.1406 7.03125 79.5449 6.69531 79.5449 6.02344C79.5449 5.36719 79.1406 5.03906 78.332 5.03906H74.793V12H72.7305V3.26367Z" fill="#DAB16C"/>
<path d="M84.625 3.26367H86.6875V12H84.625V3.26367Z" fill="#DAB16C"/>
<path d="M90.959 10.957C89.9512 10.1211 89.4473 9.01367 89.4473 7.63477C89.4473 6.25586 89.9512 5.14648 90.959 4.30664C91.9824 3.4668 93.3145 3.04688 94.9551 3.04688C96.5957 3.04688 97.9277 3.4668 98.9512 4.30664C99.9668 5.14258 100.475 6.25195 100.475 7.63477C100.475 9.01367 99.9668 10.1211 98.9512 10.957C97.9277 11.7969 96.5957 12.2168 94.9551 12.2168C93.3145 12.2168 91.9824 11.7969 90.959 10.957ZM92.5 9.68555C93.125 10.2051 93.9395 10.4648 94.9434 10.4648C95.9473 10.4648 96.7715 10.2051 97.416 9.68555C98.0488 9.16211 98.3652 8.47852 98.3652 7.63477C98.3652 6.7832 98.0488 6.10156 97.416 5.58984C96.7793 5.0625 95.9551 4.79883 94.9434 4.79883C93.9395 4.79883 93.125 5.05859 92.5 5.57812C91.875 6.09766 91.5625 6.7832 91.5625 7.63477C91.5625 8.48242 91.875 9.16602 92.5 9.68555Z" fill="#DAB16C"/>
<path d="M0.191406 16.8955H3.50488L6.23828 26.4316L8.83105 16.8955H13.041L15.5986 26.4316L18.3936 16.8955H21.6279L17.6904 30H13.5859L10.9229 20.4463L8.20703 30H4.1377L0.191406 16.8955Z" fill="#DAB16C"/>
<path d="M25.1523 30H21.9004L28.2373 16.8955H31.9023L38.2393 30H34.873L33.6514 27.46H26.3828L25.1523 30ZM30.0127 19.4707L27.4199 24.9023H32.6055L30.0127 19.4707Z" fill="#DAB16C"/>
<path d="M41.3857 16.8955H44.4795V30H41.3857V16.8955Z" fill="#DAB16C"/>
<path d="M54.8066 16.8955H58.1201L60.8535 26.4316L63.4463 16.8955H67.6562L70.2139 26.4316L73.0088 16.8955H76.2432L72.3057 30H68.2012L65.5381 20.4463L62.8223 30H58.7529L54.8066 16.8955Z" fill="#DAB16C"/>
<path d="M79.7676 30H76.5156L82.8525 16.8955H86.5176L92.8545 30H89.4883L88.2666 27.46H80.998L79.7676 30ZM84.6279 19.4707L82.0352 24.9023H87.2207L84.6279 19.4707Z" fill="#DAB16C"/>
<path d="M96.001 16.8955H99.0947V30H96.001V16.8955Z" fill="#DAB16C"/>
</svg>
