<svg width="430" height="595" viewBox="0 0 430 595" fill="none" xmlns="http://www.w3.org/2000/svg">
<path d="M71.66 17.3013C87.9371 5 98.4268 5 98.4268 5L291.582 5C300.625 8.97985 300.986 19.4722 291.582 22.3666H98.4268C86.1053 26.0597 81.3136 30.3899 76.3622 42.2658V345.82C80.68 357.487 85.4694 361.646 97.3416 365.719H331.732C342.583 360.292 347.286 355.95 350.903 345.096V103.049C354.158 95.0893 364.286 95.0893 367.903 103.049V345.096C362.839 367.166 351.626 378.02 331.732 382H97.3416C79.6177 380.915 61.8937 366.442 59 345.82V42.2658C59 42.2658 59 31.0499 71.66 17.3013Z" fill="#4D4D4D"/>
<path d="M99.5119 90.7476H252.155C252.155 90.7476 259.389 91.1094 259.751 99.0691C259.389 107.029 252.155 107.391 252.155 107.391H99.5119C99.5119 107.391 92.6394 107.029 92.2776 99.4309C92.6394 91.1094 99.5119 90.7476 99.5119 90.7476Z" fill="#4D4D4D"/>
<path d="M251.193 143.595L383.529 11.2254C383.529 11.2254 390.078 5.22896 396.485 11.0108C402.266 17.4201 396.271 23.9706 396.271 23.9706L263.935 156.34C263.935 156.34 257.699 162.023 251.569 156.518C245.511 149.832 251.193 143.595 251.193 143.595Z" fill="#4D4D4D"/>
<path d="M99.8541 153.702H213.924C213.924 153.702 222.586 154.425 222.856 162.385C222.586 170.345 213.924 170.345 213.924 170.345H99.8541C99.8541 170.345 92.1863 169.983 91.9159 162.385C92.1863 154.063 99.8541 153.702 99.8541 153.702Z" fill="#4D4D4D"/>
<path d="M178.365 241.258C178.365 245.654 174.803 249.218 170.408 249.218C166.013 249.218 162.45 245.654 162.45 241.258C162.45 236.862 166.013 233.298 170.408 233.298C174.803 233.298 178.365 236.862 178.365 241.258Z" fill="#4D4D4D"/>
<path d="M247.814 241.258C247.814 245.654 244.252 249.218 239.857 249.218C235.462 249.218 231.899 245.654 231.899 241.258C231.899 236.862 235.462 233.298 239.857 233.298C244.252 233.298 247.814 236.862 247.814 241.258Z" fill="#4D4D4D"/>
<path d="M71.66 17.3013L68.9468 13.7113L68.6238 13.9553L68.3496 14.2531L71.66 17.3013ZM291.582 5L293.395 0.88125L292.528 0.5L291.582 0.5V5ZM291.582 22.3666V26.8666H292.259L292.905 26.6675L291.582 22.3666ZM367.903 103.049H372.403V102.074L372 101.187L367.903 103.049ZM350.903 103.049L346.738 101.345L346.403 102.164V103.049H350.903ZM350.903 345.096L355.172 346.519L355.403 345.826V345.096H350.903ZM331.732 365.719V370.219H332.795L333.745 369.744L331.732 365.719ZM76.3622 345.82H71.8622V346.626L72.142 347.381L76.3622 345.82ZM97.3416 365.719L95.8815 369.975L96.5913 370.219H97.3416V365.719ZM98.4268 22.3666V17.8666H97.7669L97.1348 18.0561L98.4268 22.3666ZM76.3622 42.2658L72.2088 40.5342L71.8622 41.3653V42.2658H76.3622ZM98.4268 5V9.5V5ZM367.903 345.096L372.289 346.102L372.403 345.606V345.096H367.903ZM331.732 382V386.5H332.178L332.615 386.413L331.732 382ZM59 345.82H54.5V346.134L54.5437 346.445L59 345.82ZM97.3416 382L97.0666 386.492L97.204 386.5H97.3416V382ZM99.5119 90.7476V86.2476H99.3935L99.2753 86.2538L99.5119 90.7476ZM252.155 90.7476L252.38 86.2532L252.267 86.2476H252.155V90.7476ZM252.155 107.391V111.891H252.267L252.38 111.885L252.155 107.391ZM99.5119 107.391L99.2753 111.884L99.3935 111.891H99.5119V107.391ZM92.2776 99.4309L87.7818 99.2355L87.7729 99.4402L87.7827 99.6449L92.2776 99.4309ZM259.751 99.0691L264.246 99.2734L264.256 99.0691L264.246 98.8648L259.751 99.0691ZM251.193 143.595L248.01 140.413L247.936 140.487L247.866 140.564L251.193 143.595ZM383.529 11.2254L380.49 7.90648L380.417 7.97355L380.346 8.04379L383.529 11.2254ZM396.271 23.9706L399.453 27.1522L399.523 27.0819L399.591 27.0087L396.271 23.9706ZM263.935 156.34L266.966 159.666L267.043 159.596L267.117 159.522L263.935 156.34ZM251.569 156.518L248.234 159.539L248.39 159.711L248.562 159.866L251.569 156.518ZM396.485 11.0108L399.827 7.997L399.672 7.82504L399.5 7.66991L396.485 11.0108ZM99.8541 153.702V149.202H99.748L99.642 149.207L99.8541 153.702ZM213.924 153.702L214.299 149.217L214.112 149.202H213.924V153.702ZM99.8541 170.345L99.642 174.84L99.748 174.845H99.8541V170.345ZM91.9159 162.385L87.4183 162.239L87.4133 162.392L87.4188 162.545L91.9159 162.385ZM222.856 162.385L227.354 162.538L227.359 162.385L227.354 162.232L222.856 162.385ZM289.769 9.11875C292.985 10.534 293.982 12.7428 294 14.1488C294.016 15.3511 293.337 17.1182 290.258 18.0657L292.905 26.6675C299.231 24.7206 303.074 19.7943 302.999 14.0319C302.927 8.47318 299.222 3.44585 293.395 0.88125L289.769 9.11875ZM355.068 104.752C356.02 102.426 357.745 101.579 359.267 101.579C360.817 101.579 362.696 102.467 363.807 104.911L372 101.187C369.494 95.6713 364.5 92.5792 359.267 92.5792C354.008 92.5792 349.042 95.7125 346.738 101.345L355.068 104.752ZM355.403 345.096V103.049H346.403V345.096H355.403ZM333.745 369.744C339.316 366.957 343.758 364.238 347.283 360.553C350.867 356.804 353.229 352.349 355.172 346.519L346.634 343.673C344.959 348.697 343.162 351.84 340.778 354.332C338.334 356.888 335 359.053 329.719 361.694L333.745 369.744ZM97.3416 370.219H331.732V361.219H97.3416V370.219ZM72.142 347.381C74.421 353.54 77.0063 358.226 80.948 361.907C84.8576 365.557 89.7307 367.865 95.8815 369.975L98.8018 361.462C93.0803 359.5 89.6225 357.693 87.0899 355.328C84.5895 352.994 82.6213 349.767 80.5825 344.258L72.142 347.381ZM291.582 17.8666H98.4268V26.8666H291.582V17.8666ZM71.8622 42.2658V345.82H80.8622V42.2658H71.8622ZM97.1348 18.0561C90.7033 19.9838 85.6911 22.2302 81.6163 25.9065C77.5423 29.582 74.7921 34.3379 72.2088 40.5342L80.5157 43.9975C82.8837 38.3178 85.005 34.9707 87.6451 32.5888C90.2844 30.2077 93.8288 28.4425 99.7188 26.6771L97.1348 18.0561ZM74.3732 20.8914C82.1339 15.0263 88.3883 12.1876 92.5582 10.8108C94.6468 10.1212 96.2254 9.79397 97.224 9.63891C97.7237 9.56131 98.0795 9.5266 98.2826 9.51129C98.3842 9.50362 98.4478 9.5008 98.4721 9.4999C98.4843 9.49945 98.4867 9.49947 98.4792 9.49961C98.4755 9.49968 98.4692 9.49978 98.4605 9.49986C98.4561 9.4999 98.4511 9.49993 98.4455 9.49996C98.4427 9.49997 98.4397 9.49998 98.4366 9.49999C98.4351 9.49999 98.4326 9.5 98.4318 9.5C98.4293 9.5 98.4268 9.5 98.4268 5C98.4268 0.5 98.4242 0.500001 98.4215 0.500003C98.4206 0.500004 98.4179 0.500009 98.416 0.500013C98.4122 0.500021 98.4083 0.500034 98.4042 0.500053C98.396 0.500091 98.3872 0.50015 98.3777 0.500237C98.3588 0.500411 98.3373 0.500697 98.3132 0.501141C98.265 0.502031 98.2065 0.503558 98.1379 0.506108C98.0006 0.511209 97.8229 0.520402 97.6059 0.536766C97.1718 0.5695 96.5809 0.630897 95.8429 0.745505C94.366 0.97486 92.3049 1.4165 89.7364 2.26457C84.5921 3.9631 77.4631 7.27509 68.9468 13.7113L74.3732 20.8914ZM98.4268 9.5L291.582 9.5V0.5L98.4268 0.5V9.5ZM59 42.2658C63.5 42.2658 63.5 42.2683 63.5 42.2707C63.5 42.2714 63.5 42.2738 63.5 42.2753C63.5 42.2782 63.5 42.281 63.5 42.2837C63.4999 42.289 63.4999 42.2936 63.4999 42.2976C63.4998 42.3055 63.4997 42.3108 63.4997 42.3136C63.4996 42.319 63.4996 42.3141 63.5002 42.2991C63.5012 42.269 63.5043 42.1986 63.5124 42.0897C63.5285 41.8721 63.5645 41.5011 63.6439 40.993C63.8025 39.9775 64.1348 38.4123 64.83 36.4255C66.2151 32.467 69.0666 26.7609 74.9703 20.3496L68.3496 14.2531C61.5933 21.5904 58.1149 28.3665 56.335 33.4531C55.4477 35.9889 54.9887 38.0869 54.7517 39.604C54.6333 40.3623 54.5704 40.9749 54.537 41.4244C54.5204 41.6491 54.5111 41.833 54.506 41.974C54.5035 42.0444 54.502 42.1042 54.5011 42.1529C54.5007 42.1773 54.5004 42.1989 54.5002 42.2177C54.5001 42.2271 54.5001 42.2359 54.5001 42.2439C54.5 42.2479 54.5 42.2517 54.5 42.2554C54.5 42.2572 54.5 42.2598 54.5 42.2607C54.5 42.2633 54.5 42.2658 59 42.2658ZM363.403 103.049V345.096H372.403V103.049H363.403ZM363.517 344.09C361.108 354.589 357.341 361.965 352.185 367.162C347.05 372.337 340.17 375.723 330.849 377.587L332.615 386.413C343.188 384.297 351.862 380.266 358.573 373.501C365.263 366.759 369.635 357.673 372.289 346.102L363.517 344.09ZM63.5 345.82V42.2658H54.5V345.82H63.5ZM331.732 377.5H97.3416V386.5H331.732V377.5ZM97.6167 377.508C81.9384 376.548 66.0404 363.61 63.4563 345.194L54.5437 346.445C57.747 369.275 77.2969 385.281 97.0666 386.492L97.6167 377.508ZM99.5119 95.2476H252.155V86.2476H99.5119V95.2476ZM252.155 102.891H99.5119V111.891H252.155V102.891ZM99.5119 107.391C99.7484 102.897 99.7508 102.897 99.7532 102.897C99.754 102.897 99.7563 102.897 99.7578 102.897C99.7609 102.897 99.7638 102.898 99.7666 102.898C99.7723 102.898 99.7777 102.898 99.7826 102.899C99.7926 102.899 99.8011 102.9 99.8082 102.9C99.8225 102.901 99.8313 102.902 99.835 102.903C99.8424 102.903 99.83 102.902 99.8009 102.898C99.7413 102.891 99.6211 102.872 99.4612 102.835C99.1268 102.756 98.7089 102.615 98.3168 102.384C97.7405 102.044 96.8749 101.368 96.7725 99.2169L87.7827 99.6449C88.042 105.092 90.7936 108.395 93.744 110.136C95.1152 110.945 96.4381 111.369 97.4036 111.596C97.8936 111.711 98.3132 111.78 98.6308 111.822C98.7903 111.843 98.926 111.857 99.0342 111.867C99.0883 111.872 99.1358 111.875 99.1761 111.878C99.1962 111.88 99.2146 111.881 99.2311 111.882C99.2394 111.882 99.2472 111.883 99.2546 111.883C99.2583 111.883 99.2618 111.884 99.2653 111.884C99.267 111.884 99.2695 111.884 99.2704 111.884C99.2729 111.884 99.2753 111.884 99.5119 107.391ZM96.7734 99.6263C96.8902 96.9384 97.9195 96.103 98.4593 95.7569C98.8361 95.5153 99.2288 95.3742 99.533 95.2975C99.6792 95.2606 99.7861 95.2434 99.8337 95.2368C99.8568 95.2336 99.8634 95.2332 99.8506 95.2344C99.8441 95.235 99.8327 95.236 99.8158 95.2372C99.8074 95.2378 99.7976 95.2385 99.7864 95.2392C99.7808 95.2396 99.7748 95.2399 99.7685 95.2403C99.7653 95.2405 99.7621 95.2406 99.7587 95.2408C99.7571 95.2409 99.7545 95.2411 99.7537 95.2411C99.7511 95.2412 99.7484 95.2414 99.5119 90.7476C99.2753 86.2538 99.2726 86.254 99.2699 86.2541C99.269 86.2542 99.2662 86.2543 99.2644 86.2544C99.2606 86.2546 99.2567 86.2548 99.2527 86.2551C99.2448 86.2555 99.2363 86.256 99.2274 86.2566C99.2096 86.2577 99.1899 86.259 99.1685 86.2605C99.1256 86.2636 99.0755 86.2677 99.0186 86.273C98.905 86.2835 98.7635 86.2991 98.598 86.322C98.2683 86.3677 97.8356 86.4438 97.3318 86.5708C96.3361 86.822 94.9881 87.2914 93.6015 88.1805C90.6146 90.0957 88.0268 93.6019 87.7818 99.2355L96.7734 99.6263ZM252.155 90.7476C251.93 95.242 251.928 95.2419 251.925 95.2417C251.925 95.2417 251.922 95.2416 251.921 95.2415C251.918 95.2413 251.915 95.2412 251.912 95.241C251.907 95.2407 251.901 95.2404 251.896 95.2402C251.887 95.2396 251.879 95.2391 251.872 95.2386C251.858 95.2377 251.851 95.237 251.848 95.2368C251.844 95.2365 251.86 95.2378 251.895 95.2422C251.964 95.2512 252.099 95.2716 252.276 95.3126C252.645 95.398 253.108 95.5516 253.544 95.8068C254.204 96.1937 255.15 96.9543 255.256 99.2734L264.246 98.8648C263.99 93.2242 261.138 89.8241 258.091 88.0401C256.673 87.2099 255.304 86.7755 254.306 86.5444C253.799 86.4271 253.366 86.3571 253.039 86.3152C252.874 86.2941 252.735 86.2799 252.624 86.2704C252.569 86.2656 252.521 86.2619 252.48 86.2592C252.459 86.2578 252.441 86.2566 252.424 86.2556C252.416 86.2551 252.408 86.2547 252.4 86.2543C252.397 86.2541 252.393 86.2539 252.39 86.2537C252.388 86.2536 252.386 86.2535 252.385 86.2535C252.382 86.2533 252.38 86.2532 252.155 90.7476ZM255.256 98.8648C255.15 101.184 254.204 101.945 253.544 102.331C253.108 102.587 252.645 102.74 252.276 102.826C252.099 102.867 251.964 102.887 251.895 102.896C251.86 102.9 251.844 102.902 251.848 102.901C251.851 102.901 251.858 102.901 251.872 102.9C251.879 102.899 251.887 102.899 251.896 102.898C251.901 102.898 251.907 102.897 251.912 102.897C251.915 102.897 251.918 102.897 251.921 102.897C251.922 102.897 251.925 102.896 251.925 102.896C251.928 102.896 251.93 102.896 252.155 107.391C252.38 111.885 252.382 111.885 252.385 111.885C252.386 111.885 252.388 111.885 252.39 111.884C252.393 111.884 252.397 111.884 252.4 111.884C252.408 111.883 252.416 111.883 252.424 111.883C252.441 111.882 252.459 111.88 252.48 111.879C252.521 111.876 252.569 111.873 252.624 111.868C252.735 111.858 252.874 111.844 253.039 111.823C253.366 111.781 253.799 111.711 254.306 111.594C255.304 111.363 256.673 110.928 258.091 110.098C261.138 108.314 263.99 104.914 264.246 99.2734L255.256 98.8648ZM254.375 146.776L386.711 14.407L380.346 8.04379L248.01 140.413L254.375 146.776ZM393.089 20.789L260.752 153.158L267.117 159.522L399.453 27.1522L393.089 20.789ZM263.935 156.34C260.903 153.014 260.905 153.013 260.907 153.011C260.907 153.011 260.909 153.009 260.91 153.009C260.911 153.007 260.913 153.005 260.915 153.004C260.919 153 260.922 152.997 260.925 152.995C260.93 152.99 260.935 152.986 260.938 152.983C260.944 152.978 260.945 152.977 260.941 152.98C260.933 152.987 260.905 153.011 260.859 153.047C260.767 153.12 260.608 153.24 260.395 153.38C259.952 153.671 259.359 153.993 258.698 154.201C257.562 154.559 256.221 154.647 254.575 153.17L248.562 159.866C253.047 163.893 257.889 163.892 261.403 162.785C263.068 162.261 264.416 161.507 265.335 160.903C265.801 160.597 266.177 160.316 266.45 160.1C266.587 159.991 266.699 159.898 266.785 159.825C266.829 159.788 266.865 159.756 266.895 159.729C266.91 159.716 266.924 159.704 266.936 159.693C266.941 159.688 266.947 159.683 266.952 159.679C266.954 159.676 266.957 159.674 266.959 159.672C266.96 159.671 266.962 159.669 266.963 159.669C266.964 159.667 266.966 159.666 263.935 156.34ZM254.904 153.497C253.03 151.428 253.144 149.839 253.446 148.75C253.628 148.091 253.928 147.512 254.198 147.087C254.328 146.882 254.44 146.731 254.506 146.647C254.538 146.606 254.558 146.582 254.562 146.577C254.564 146.575 254.562 146.578 254.555 146.586C254.551 146.59 254.547 146.595 254.541 146.602C254.538 146.605 254.534 146.608 254.531 146.612C254.529 146.614 254.527 146.616 254.525 146.618C254.524 146.62 254.523 146.621 254.522 146.622C254.521 146.623 254.519 146.625 251.193 143.595C247.866 140.564 247.864 140.566 247.863 140.568C247.862 140.569 247.86 140.57 247.859 140.572C247.857 140.574 247.855 140.577 247.852 140.58C247.847 140.585 247.842 140.591 247.836 140.597C247.825 140.61 247.812 140.624 247.798 140.64C247.77 140.672 247.737 140.71 247.699 140.756C247.622 140.846 247.526 140.962 247.415 141.104C247.194 141.387 246.909 141.777 246.602 142.26C245.995 143.214 245.253 144.612 244.772 146.348C243.748 150.049 244.05 154.921 248.234 159.539L254.904 153.497ZM383.529 11.2254C386.568 14.5443 386.566 14.5457 386.565 14.5471C386.564 14.5475 386.563 14.5489 386.562 14.5498C386.56 14.5515 386.558 14.5532 386.556 14.5547C386.553 14.5579 386.55 14.5607 386.547 14.5632C386.541 14.5681 386.537 14.5718 386.535 14.5742C386.529 14.579 386.529 14.5789 386.535 14.5743C386.545 14.565 386.577 14.5384 386.627 14.4983C386.729 14.4171 386.902 14.286 387.133 14.1332C387.61 13.8179 388.252 13.4661 388.97 13.2378C390.218 12.8401 391.695 12.7491 393.471 14.3518L399.5 7.66991C394.868 3.49067 389.866 3.50696 386.239 4.66203C384.518 5.21003 383.122 5.99598 382.172 6.62431C381.689 6.94341 381.3 7.23555 381.018 7.45975C380.877 7.57225 380.762 7.66882 380.673 7.7446C380.629 7.78253 380.592 7.81536 380.561 7.84251C380.546 7.85608 380.532 7.86825 380.52 7.87893C380.514 7.88427 380.509 7.88925 380.504 7.89384C380.501 7.89614 380.499 7.89834 380.497 7.90044C380.495 7.9015 380.494 7.90301 380.493 7.90353C380.492 7.90501 380.49 7.90648 383.529 11.2254ZM393.144 14.0247C394.746 15.8016 394.656 17.2793 394.258 18.5294C394.029 19.2471 393.678 19.8897 393.362 20.3671C393.21 20.5983 393.078 20.7712 392.997 20.873C392.957 20.9235 392.93 20.9549 392.921 20.9656C392.917 20.971 392.917 20.9711 392.921 20.9656C392.924 20.9629 392.927 20.9588 392.932 20.9533C392.935 20.9506 392.938 20.9475 392.941 20.944C392.942 20.9423 392.944 20.9404 392.946 20.9385C392.947 20.9376 392.948 20.9361 392.948 20.9356C392.95 20.9341 392.951 20.9325 396.271 23.9706C399.591 27.0087 399.592 27.0071 399.593 27.0055C399.594 27.0049 399.596 27.0032 399.597 27.0021C399.599 26.9998 399.601 26.9973 399.603 26.9948C399.608 26.9898 399.613 26.9843 399.618 26.9783C399.629 26.9665 399.641 26.9529 399.654 26.9376C399.682 26.907 399.714 26.8695 399.752 26.8253C399.828 26.737 399.925 26.6214 400.037 26.4802C400.261 26.1988 400.553 25.8098 400.872 25.3268C401.5 24.3757 402.286 22.98 402.834 21.2589C403.988 17.6315 404.005 12.6293 399.827 7.997L393.144 14.0247ZM99.8541 158.202H213.924V149.202H99.8541V158.202ZM213.924 165.845H99.8541V174.845H213.924V165.845ZM99.8541 170.345C100.066 165.85 100.068 165.85 100.07 165.85C100.071 165.85 100.073 165.85 100.075 165.85C100.077 165.85 100.08 165.85 100.082 165.85C100.087 165.851 100.092 165.851 100.096 165.851C100.104 165.851 100.111 165.852 100.116 165.852C100.126 165.853 100.129 165.853 100.127 165.853C100.123 165.853 100.096 165.85 100.05 165.845C99.9562 165.834 99.7918 165.811 99.5812 165.766C99.1424 165.674 98.6039 165.51 98.1037 165.243C97.2937 164.811 96.4809 164.131 96.4131 162.225L87.4188 162.545C87.6213 168.237 90.7776 171.536 93.8691 173.185C95.3196 173.958 96.715 174.36 97.7223 174.572C98.2349 174.68 98.6716 174.745 98.9982 174.783C99.1622 174.803 99.3003 174.816 99.4085 174.824C99.4627 174.829 99.5095 174.832 99.5486 174.834C99.5681 174.836 99.5857 174.837 99.6013 174.837C99.6091 174.838 99.6164 174.838 99.6231 174.839C99.6265 174.839 99.6298 174.839 99.633 174.839C99.6345 174.839 99.6368 174.839 99.6376 174.839C99.6398 174.839 99.642 174.84 99.8541 170.345ZM96.4136 162.531C96.4935 160.071 97.5016 159.246 98.2429 158.816C98.7237 158.537 99.2357 158.37 99.6468 158.277C99.8445 158.232 99.9967 158.209 100.08 158.199C100.12 158.194 100.142 158.192 100.141 158.192C100.141 158.192 100.135 158.193 100.122 158.193C100.116 158.194 100.109 158.194 100.099 158.195C100.094 158.195 100.089 158.195 100.084 158.196C100.081 158.196 100.078 158.196 100.075 158.196C100.074 158.196 100.072 158.196 100.071 158.196C100.069 158.196 100.066 158.197 99.8541 153.702C99.642 149.207 99.6396 149.207 99.6372 149.207C99.6363 149.207 99.6338 149.207 99.6321 149.207C99.6287 149.207 99.6252 149.207 99.6215 149.208C99.6141 149.208 99.6063 149.208 99.5979 149.209C99.5812 149.21 99.5625 149.211 99.5418 149.212C99.5004 149.215 99.4512 149.218 99.3945 149.223C99.2814 149.233 99.1381 149.247 98.9686 149.268C98.6311 149.31 98.1822 149.38 97.6568 149.499C96.6217 149.734 95.1998 150.177 93.7298 151.029C90.5697 152.861 87.6087 156.377 87.4183 162.239L96.4136 162.531ZM213.924 153.702C213.55 158.186 213.548 158.186 213.546 158.186C213.545 158.186 213.543 158.185 213.542 158.185C213.54 158.185 213.537 158.185 213.535 158.185C213.531 158.184 213.527 158.184 213.524 158.184C213.517 158.183 213.512 158.183 213.509 158.182C213.503 158.182 213.504 158.182 213.512 158.183C213.527 158.184 213.57 158.189 213.634 158.199C213.765 158.219 213.98 158.256 214.25 158.319C214.808 158.451 215.507 158.673 216.167 159.027C217.366 159.668 218.292 160.584 218.359 162.538L227.354 162.232C227.15 156.226 223.61 152.8 220.411 151.09C218.872 150.267 217.388 149.812 216.313 149.559C215.767 149.43 215.303 149.348 214.96 149.297C214.787 149.272 214.643 149.253 214.532 149.241C214.476 149.234 214.428 149.229 214.389 149.225C214.37 149.224 214.353 149.222 214.338 149.221C214.33 149.22 214.323 149.219 214.317 149.219C214.313 149.218 214.31 149.218 214.307 149.218C214.306 149.218 214.304 149.218 214.303 149.217C214.301 149.217 214.299 149.217 213.924 153.702ZM218.359 162.232C218.321 163.353 218.014 163.934 217.763 164.265C217.477 164.641 217.043 164.974 216.434 165.25C215.818 165.528 215.152 165.688 214.604 165.772C214.341 165.812 214.131 165.83 214.003 165.839C213.94 165.843 213.899 165.844 213.884 165.845C213.877 165.845 213.876 165.845 213.882 165.845C213.886 165.845 213.891 165.845 213.898 165.845C213.901 165.845 213.905 165.845 213.91 165.845C213.912 165.845 213.914 165.845 213.917 165.845C213.918 165.845 213.92 165.845 213.92 165.845C213.922 165.845 213.924 165.845 213.924 170.345C213.924 174.845 213.926 174.845 213.928 174.845C213.929 174.845 213.931 174.845 213.933 174.845C213.936 174.845 213.939 174.845 213.942 174.844C213.949 174.844 213.956 174.844 213.963 174.844C213.979 174.844 213.996 174.844 214.016 174.844C214.055 174.843 214.103 174.842 214.159 174.84C214.271 174.837 214.417 174.831 214.591 174.819C214.938 174.797 215.407 174.753 215.96 174.669C217.044 174.504 218.561 174.166 220.144 173.449C221.734 172.73 223.516 171.571 224.93 169.708C226.379 167.8 227.257 165.396 227.354 162.538L218.359 162.232ZM173.865 241.258C173.865 243.17 172.316 244.718 170.408 244.718V253.718C177.289 253.718 182.865 248.138 182.865 241.258H173.865ZM170.408 244.718C168.499 244.718 166.95 243.17 166.95 241.258H157.95C157.95 248.138 163.527 253.718 170.408 253.718V244.718ZM166.95 241.258C166.95 239.346 168.499 237.798 170.408 237.798V228.798C163.527 228.798 157.95 234.378 157.95 241.258H166.95ZM170.408 237.798C172.316 237.798 173.865 239.346 173.865 241.258H182.865C182.865 234.378 177.289 228.798 170.408 228.798V237.798ZM243.314 241.258C243.314 243.17 241.765 244.718 239.857 244.718V253.718C246.738 253.718 252.314 248.138 252.314 241.258H243.314ZM239.857 244.718C237.948 244.718 236.399 243.17 236.399 241.258H227.399C227.399 248.138 232.976 253.718 239.857 253.718V244.718ZM236.399 241.258C236.399 239.346 237.948 237.798 239.857 237.798V228.798C232.976 228.798 227.399 234.378 227.399 241.258H236.399ZM239.857 237.798C241.765 237.798 243.314 239.346 243.314 241.258H252.314C252.314 234.378 246.738 228.798 239.857 228.798V237.798ZM187.047 278.524C190.154 281.779 190.153 281.78 190.152 281.781C190.152 281.781 190.15 281.782 190.15 281.783C190.148 281.784 190.147 281.785 190.146 281.786C190.144 281.789 190.142 281.79 190.141 281.791C190.138 281.794 190.137 281.795 190.138 281.794C190.14 281.792 190.15 281.783 190.166 281.768C190.199 281.738 190.261 281.682 190.351 281.605C190.53 281.451 190.818 281.211 191.208 280.913C191.99 280.315 193.166 279.497 194.673 278.675C197.703 277.022 201.933 275.426 206.941 275.426V266.426C200.012 266.426 194.295 268.629 190.362 270.775C188.388 271.852 186.828 272.934 185.745 273.761C185.202 274.175 184.776 274.529 184.473 274.79C184.321 274.92 184.201 275.028 184.111 275.109C184.067 275.15 184.03 275.184 184.001 275.211C183.987 275.224 183.975 275.236 183.964 275.245C183.959 275.25 183.954 275.255 183.95 275.259C183.948 275.261 183.946 275.263 183.944 275.264C183.943 275.265 183.942 275.266 183.942 275.267C183.94 275.268 183.939 275.269 187.047 278.524ZM206.941 275.426C211.949 275.426 216.179 277.022 219.209 278.675C220.716 279.497 221.891 280.315 222.674 280.913C223.064 281.211 223.352 281.451 223.531 281.605C223.62 281.682 223.682 281.738 223.715 281.768C223.732 281.783 223.741 281.792 223.743 281.794C223.744 281.795 223.744 281.794 223.741 281.791C223.74 281.79 223.738 281.789 223.736 281.786C223.735 281.785 223.733 281.784 223.732 281.783C223.731 281.782 223.73 281.781 223.73 281.781C223.729 281.78 223.728 281.779 226.835 278.524C229.943 275.269 229.941 275.268 229.94 275.267C229.94 275.266 229.938 275.265 229.937 275.264C229.936 275.263 229.934 275.261 229.932 275.259C229.927 275.255 229.923 275.25 229.918 275.245C229.907 275.236 229.895 275.224 229.88 275.211C229.852 275.184 229.815 275.15 229.77 275.109C229.681 275.028 229.56 274.92 229.409 274.79C229.106 274.529 228.679 274.175 228.137 273.761C227.054 272.934 225.494 271.852 223.519 270.775C219.586 268.629 213.869 266.426 206.941 266.426V275.426Z" fill="#4D4D4D" fill-opacity="0.99"/>
<path d="M62.2832 449.607C62.2832 448.998 62.1937 448.452 62.0146 447.969C61.8356 447.467 61.5044 447.002 61.021 446.572C60.5376 446.143 59.8394 445.713 58.9263 445.283C58.0311 444.836 56.8494 444.37 55.3813 443.887C53.6626 443.314 52.0065 442.669 50.4131 441.953C48.8197 441.219 47.3963 440.369 46.1431 439.402C44.8898 438.417 43.8962 437.271 43.1621 435.964C42.4281 434.639 42.061 433.1 42.061 431.345C42.061 429.662 42.437 428.149 43.189 426.807C43.9409 425.446 44.9883 424.291 46.3311 423.342C47.6917 422.375 49.2852 421.641 51.1113 421.14C52.9375 420.621 54.9338 420.361 57.1001 420.361C59.9647 420.361 62.4891 420.863 64.6733 421.865C66.8755 422.85 68.5942 424.255 69.8296 426.082C71.0828 427.89 71.7095 430.029 71.7095 432.5H62.3369C62.3369 431.515 62.131 430.647 61.7192 429.895C61.3254 429.143 60.7256 428.552 59.9199 428.123C59.1143 427.693 58.1027 427.478 56.8853 427.478C55.7036 427.478 54.71 427.657 53.9043 428.015C53.0986 428.373 52.4899 428.857 52.0781 429.465C51.6663 430.056 51.4604 430.71 51.4604 431.426C51.4604 432.017 51.6216 432.554 51.9438 433.037C52.284 433.503 52.7585 433.941 53.3672 434.353C53.9938 434.765 54.7458 435.159 55.623 435.535C56.5182 435.911 57.5208 436.278 58.6309 436.636C60.7077 437.298 62.5518 438.041 64.1631 438.865C65.7923 439.67 67.1619 440.592 68.272 441.631C69.3999 442.651 70.2503 443.815 70.8232 445.122C71.4141 446.429 71.7095 447.906 71.7095 449.553C71.7095 451.308 71.3693 452.865 70.689 454.226C70.0086 455.587 69.0329 456.742 67.7617 457.69C66.4906 458.621 64.9688 459.329 63.1963 459.812C61.4238 460.295 59.4455 460.537 57.2612 460.537C55.256 460.537 53.2777 460.286 51.3262 459.785C49.3926 459.266 47.638 458.478 46.0625 457.422C44.487 456.348 43.2248 454.978 42.2759 453.313C41.3449 451.63 40.8794 449.634 40.8794 447.324H50.3325C50.3325 448.47 50.4847 449.437 50.7891 450.225C51.0934 451.012 51.541 451.648 52.1318 452.131C52.7227 452.597 53.4478 452.937 54.3071 453.152C55.1665 453.349 56.1512 453.447 57.2612 453.447C58.4608 453.447 59.4276 453.277 60.1616 452.937C60.8957 452.579 61.4328 452.113 61.7729 451.541C62.1131 450.95 62.2832 450.305 62.2832 449.607ZM90.2129 460.537C87.8496 460.537 85.737 460.17 83.875 459.436C82.013 458.684 80.4375 457.655 79.1484 456.348C77.8773 455.041 76.9015 453.537 76.2212 451.836C75.5588 450.135 75.2275 448.336 75.2275 446.438V445.417C75.2275 443.287 75.5229 441.318 76.1138 439.509C76.7046 437.683 77.5819 436.09 78.7456 434.729C79.9093 433.368 81.3685 432.312 83.123 431.56C84.8776 430.79 86.9186 430.405 89.2461 430.405C91.305 430.405 93.1491 430.736 94.7783 431.399C96.4076 432.061 97.7861 433.01 98.9141 434.246C100.06 435.481 100.928 436.976 101.519 438.73C102.128 440.485 102.432 442.454 102.432 444.639V448.318H78.6919V442.651H93.5967V441.953C93.6146 440.986 93.4445 440.163 93.0864 439.482C92.7463 438.802 92.245 438.283 91.5825 437.925C90.9201 437.567 90.1144 437.388 89.1655 437.388C88.1808 437.388 87.3662 437.603 86.7217 438.032C86.0951 438.462 85.6027 439.053 85.2446 439.805C84.9045 440.539 84.6628 441.389 84.5195 442.356C84.3763 443.323 84.3047 444.343 84.3047 445.417V446.438C84.3047 447.512 84.4479 448.488 84.7344 449.365C85.0387 450.243 85.4684 450.994 86.0234 451.621C86.5964 452.23 87.2767 452.704 88.0645 453.044C88.8701 453.385 89.7832 453.555 90.8037 453.555C92.0391 453.555 93.2565 453.322 94.4561 452.856C95.6556 452.391 96.6851 451.621 97.5444 450.547L101.653 455.435C101.062 456.276 100.221 457.091 99.1289 457.878C98.0547 458.666 96.7656 459.311 95.2617 459.812C93.7578 460.295 92.0749 460.537 90.2129 460.537ZM115.242 437.092V460H106.192V430.942H114.678L115.242 437.092ZM114.141 444.478L112.073 444.531C112.073 442.49 112.315 440.61 112.798 438.892C113.282 437.173 113.998 435.678 114.947 434.407C115.896 433.136 117.059 432.151 118.438 431.453C119.834 430.754 121.446 430.405 123.272 430.405C124.543 430.405 125.698 430.602 126.736 430.996C127.775 431.372 128.67 431.972 129.422 432.795C130.174 433.601 130.747 434.657 131.141 435.964C131.552 437.253 131.758 438.802 131.758 440.61V460H122.708V441.765C122.708 440.53 122.565 439.599 122.278 438.972C122.01 438.346 121.616 437.925 121.097 437.71C120.577 437.495 119.942 437.388 119.19 437.388C118.402 437.388 117.695 437.567 117.068 437.925C116.442 438.283 115.905 438.784 115.457 439.429C115.027 440.055 114.696 440.798 114.463 441.658C114.249 442.517 114.141 443.457 114.141 444.478ZM130.738 444.478L128.213 444.531C128.213 442.49 128.437 440.61 128.885 438.892C129.35 437.173 130.04 435.678 130.953 434.407C131.884 433.136 133.038 432.151 134.417 431.453C135.796 430.754 137.398 430.405 139.224 430.405C140.549 430.405 141.766 430.602 142.876 430.996C143.986 431.39 144.944 432.026 145.75 432.903C146.556 433.78 147.182 434.944 147.63 436.394C148.077 437.826 148.301 439.599 148.301 441.711V460H139.224V441.711C139.224 440.512 139.081 439.608 138.794 438.999C138.526 438.372 138.132 437.952 137.613 437.737C137.094 437.504 136.476 437.388 135.76 437.388C134.9 437.388 134.157 437.567 133.531 437.925C132.904 438.283 132.376 438.784 131.946 439.429C131.535 440.055 131.23 440.798 131.033 441.658C130.836 442.517 130.738 443.457 130.738 444.478ZM176.312 436.528V471.172H167.261V430.942H175.694L176.312 436.528ZM194.144 445.122V445.686C194.144 447.799 193.902 449.759 193.418 451.567C192.935 453.376 192.219 454.951 191.27 456.294C190.321 457.637 189.139 458.684 187.725 459.436C186.329 460.17 184.708 460.537 182.864 460.537C181.128 460.537 179.633 460.152 178.379 459.382C177.126 458.612 176.079 457.547 175.237 456.187C174.396 454.826 173.715 453.268 173.196 451.514C172.677 449.759 172.265 447.906 171.961 445.955V445.229C172.265 443.135 172.677 441.192 173.196 439.402C173.715 437.594 174.396 436.018 175.237 434.675C176.079 433.333 177.117 432.285 178.353 431.533C179.606 430.781 181.101 430.405 182.837 430.405C184.681 430.405 186.302 430.754 187.698 431.453C189.113 432.151 190.294 433.153 191.243 434.46C192.21 435.75 192.935 437.298 193.418 439.106C193.902 440.915 194.144 442.92 194.144 445.122ZM185.093 445.686V445.122C185.093 443.994 185.013 442.965 184.852 442.034C184.69 441.085 184.431 440.261 184.073 439.563C183.733 438.865 183.276 438.328 182.703 437.952C182.13 437.576 181.423 437.388 180.582 437.388C179.615 437.388 178.8 437.54 178.138 437.844C177.493 438.131 176.974 438.578 176.58 439.187C176.204 439.778 175.936 440.521 175.774 441.416C175.631 442.293 175.569 443.323 175.586 444.504V446.707C175.551 448.067 175.685 449.267 175.989 450.305C176.294 451.326 176.822 452.122 177.574 452.695C178.326 453.268 179.346 453.555 180.635 453.555C181.495 453.555 182.211 453.358 182.784 452.964C183.357 452.552 183.813 451.988 184.153 451.272C184.493 450.538 184.735 449.696 184.878 448.748C185.022 447.799 185.093 446.778 185.093 445.686ZM213.265 452.695V440.718C213.265 439.894 213.148 439.187 212.916 438.596C212.683 438.005 212.316 437.549 211.814 437.227C211.313 436.886 210.642 436.716 209.8 436.716C209.12 436.716 208.538 436.833 208.055 437.065C207.571 437.298 207.204 437.647 206.954 438.113C206.703 438.578 206.578 439.169 206.578 439.885H197.527C197.527 438.542 197.823 437.298 198.414 436.152C199.022 434.989 199.882 433.977 200.992 433.118C202.12 432.258 203.462 431.596 205.02 431.13C206.596 430.647 208.35 430.405 210.284 430.405C212.593 430.405 214.652 430.79 216.46 431.56C218.287 432.33 219.728 433.485 220.784 435.024C221.84 436.546 222.369 438.462 222.369 440.771V452.668C222.369 454.566 222.476 456.007 222.691 456.992C222.906 457.959 223.21 458.809 223.604 459.543V460H214.527C214.097 459.105 213.775 458.013 213.56 456.724C213.363 455.417 213.265 454.074 213.265 452.695ZM214.366 442.249L214.419 447.083H210.418C209.576 447.083 208.86 447.199 208.27 447.432C207.697 447.664 207.231 447.987 206.873 448.398C206.533 448.792 206.282 449.24 206.121 449.741C205.978 450.243 205.906 450.771 205.906 451.326C205.906 451.863 206.032 452.346 206.282 452.776C206.551 453.188 206.909 453.51 207.356 453.743C207.804 453.975 208.305 454.092 208.86 454.092C209.863 454.092 210.713 453.904 211.412 453.528C212.128 453.134 212.674 452.66 213.05 452.104C213.426 451.549 213.614 451.03 213.614 450.547L215.601 454.253C215.243 454.969 214.831 455.694 214.366 456.428C213.918 457.162 213.354 457.843 212.674 458.469C212.011 459.078 211.197 459.579 210.23 459.973C209.263 460.349 208.09 460.537 206.712 460.537C204.922 460.537 203.274 460.17 201.771 459.436C200.285 458.702 199.094 457.681 198.199 456.375C197.304 455.05 196.856 453.528 196.856 451.809C196.856 450.305 197.125 448.962 197.662 447.781C198.217 446.599 199.049 445.597 200.159 444.773C201.269 443.949 202.684 443.323 204.402 442.893C206.121 442.463 208.144 442.249 210.472 442.249H214.366ZM236.951 418.75V460H227.874V418.75H236.951ZM257.63 452.695V440.718C257.63 439.894 257.514 439.187 257.281 438.596C257.048 438.005 256.681 437.549 256.18 437.227C255.678 436.886 255.007 436.716 254.166 436.716C253.485 436.716 252.903 436.833 252.42 437.065C251.937 437.298 251.569 437.647 251.319 438.113C251.068 438.578 250.943 439.169 250.943 439.885H241.893C241.893 438.542 242.188 437.298 242.779 436.152C243.388 434.989 244.247 433.977 245.357 433.118C246.485 432.258 247.828 431.596 249.385 431.13C250.961 430.647 252.715 430.405 254.649 430.405C256.958 430.405 259.017 430.79 260.826 431.56C262.652 432.33 264.093 433.485 265.149 435.024C266.206 436.546 266.734 438.462 266.734 440.771V452.668C266.734 454.566 266.841 456.007 267.056 456.992C267.271 457.959 267.575 458.809 267.969 459.543V460H258.892C258.462 459.105 258.14 458.013 257.925 456.724C257.728 455.417 257.63 454.074 257.63 452.695ZM258.731 442.249L258.785 447.083H254.783C253.942 447.083 253.226 447.199 252.635 447.432C252.062 447.664 251.596 447.987 251.238 448.398C250.898 448.792 250.647 449.24 250.486 449.741C250.343 450.243 250.271 450.771 250.271 451.326C250.271 451.863 250.397 452.346 250.647 452.776C250.916 453.188 251.274 453.51 251.722 453.743C252.169 453.975 252.671 454.092 253.226 454.092C254.228 454.092 255.079 453.904 255.777 453.528C256.493 453.134 257.039 452.66 257.415 452.104C257.791 451.549 257.979 451.03 257.979 450.547L259.966 454.253C259.608 454.969 259.196 455.694 258.731 456.428C258.283 457.162 257.719 457.843 257.039 458.469C256.377 459.078 255.562 459.579 254.595 459.973C253.628 460.349 252.456 460.537 251.077 460.537C249.287 460.537 247.64 460.17 246.136 459.436C244.65 458.702 243.459 457.681 242.564 456.375C241.669 455.05 241.221 453.528 241.221 451.809C241.221 450.305 241.49 448.962 242.027 447.781C242.582 446.599 243.414 445.597 244.524 444.773C245.634 443.949 247.049 443.323 248.768 442.893C250.486 442.463 252.509 442.249 254.837 442.249H258.731ZM281.8 453.796L287.52 430.942H297.054L287.547 460H281.907L281.8 453.796ZM278.416 430.942L284.056 453.796L284.002 460H278.335L268.855 430.942H278.416ZM308.87 438.14V460H299.82V430.942H308.279L308.87 438.14ZM317.464 430.728L317.303 439.133C316.945 439.097 316.461 439.053 315.853 438.999C315.244 438.945 314.734 438.918 314.322 438.918C313.265 438.918 312.352 439.044 311.583 439.294C310.831 439.527 310.204 439.885 309.703 440.369C309.219 440.834 308.861 441.425 308.628 442.141C308.414 442.857 308.315 443.69 308.333 444.639L306.695 443.564C306.695 441.613 306.883 439.84 307.259 438.247C307.653 436.636 308.208 435.248 308.924 434.084C309.64 432.903 310.508 431.999 311.529 431.372C312.549 430.728 313.695 430.405 314.966 430.405C315.414 430.405 315.853 430.432 316.282 430.486C316.73 430.54 317.124 430.62 317.464 430.728ZM334.866 452.695V440.718C334.866 439.894 334.75 439.187 334.517 438.596C334.284 438.005 333.917 437.549 333.416 437.227C332.915 436.886 332.243 436.716 331.402 436.716C330.722 436.716 330.14 436.833 329.656 437.065C329.173 437.298 328.806 437.647 328.555 438.113C328.305 438.578 328.179 439.169 328.179 439.885H319.129C319.129 438.542 319.424 437.298 320.015 436.152C320.624 434.989 321.483 433.977 322.593 433.118C323.721 432.258 325.064 431.596 326.622 431.13C328.197 430.647 329.952 430.405 331.885 430.405C334.195 430.405 336.254 430.79 338.062 431.56C339.888 432.33 341.329 433.485 342.386 435.024C343.442 436.546 343.97 438.462 343.97 440.771V452.668C343.97 454.566 344.078 456.007 344.292 456.992C344.507 457.959 344.812 458.809 345.206 459.543V460H336.128C335.699 459.105 335.376 458.013 335.162 456.724C334.965 455.417 334.866 454.074 334.866 452.695ZM335.967 442.249L336.021 447.083H332.02C331.178 447.083 330.462 447.199 329.871 447.432C329.298 447.664 328.833 447.987 328.475 448.398C328.134 448.792 327.884 449.24 327.723 449.741C327.579 450.243 327.508 450.771 327.508 451.326C327.508 451.863 327.633 452.346 327.884 452.776C328.152 453.188 328.51 453.51 328.958 453.743C329.406 453.975 329.907 454.092 330.462 454.092C331.465 454.092 332.315 453.904 333.013 453.528C333.729 453.134 334.275 452.66 334.651 452.104C335.027 451.549 335.215 451.03 335.215 450.547L337.203 454.253C336.845 454.969 336.433 455.694 335.967 456.428C335.52 457.162 334.956 457.843 334.275 458.469C333.613 459.078 332.798 459.579 331.832 459.973C330.865 460.349 329.692 460.537 328.313 460.537C326.523 460.537 324.876 460.17 323.372 459.436C321.886 458.702 320.695 457.681 319.8 456.375C318.905 455.05 318.458 453.528 318.458 451.809C318.458 450.305 318.726 448.962 319.263 447.781C319.818 446.599 320.651 445.597 321.761 444.773C322.871 443.949 324.285 443.323 326.004 442.893C327.723 442.463 329.746 442.249 332.073 442.249H335.967ZM364.219 451.836C364.219 451.335 364.049 450.905 363.709 450.547C363.387 450.171 362.814 449.831 361.99 449.526C361.167 449.204 360.012 448.882 358.526 448.56C357.111 448.255 355.778 447.852 354.524 447.351C353.289 446.85 352.206 446.241 351.275 445.525C350.344 444.809 349.61 443.958 349.073 442.974C348.554 441.989 348.294 440.861 348.294 439.59C348.294 438.354 348.554 437.191 349.073 436.099C349.61 434.989 350.389 434.013 351.409 433.171C352.448 432.312 353.71 431.641 355.196 431.157C356.682 430.656 358.374 430.405 360.271 430.405C362.885 430.405 365.141 430.808 367.039 431.614C368.937 432.402 370.396 433.512 371.417 434.944C372.455 436.358 372.974 437.996 372.974 439.858H363.924C363.924 439.124 363.799 438.498 363.548 437.979C363.315 437.459 362.93 437.065 362.393 436.797C361.856 436.51 361.14 436.367 360.245 436.367C359.618 436.367 359.045 436.484 358.526 436.716C358.025 436.949 357.622 437.271 357.317 437.683C357.013 438.095 356.861 438.578 356.861 439.133C356.861 439.527 356.95 439.885 357.129 440.208C357.326 440.512 357.622 440.798 358.016 441.067C358.41 441.318 358.911 441.55 359.52 441.765C360.128 441.962 360.862 442.141 361.722 442.302C363.673 442.66 365.499 443.171 367.2 443.833C368.901 444.495 370.28 445.435 371.336 446.653C372.41 447.87 372.947 449.508 372.947 451.567C372.947 452.856 372.652 454.047 372.061 455.139C371.47 456.213 370.62 457.162 369.51 457.986C368.4 458.792 367.066 459.418 365.508 459.866C363.951 460.313 362.196 460.537 360.245 460.537C357.47 460.537 355.124 460.045 353.208 459.06C351.293 458.057 349.843 456.804 348.858 455.3C347.891 453.778 347.408 452.239 347.408 450.681H355.84C355.876 451.576 356.091 452.31 356.485 452.883C356.897 453.456 357.443 453.877 358.123 454.146C358.803 454.414 359.591 454.548 360.486 454.548C361.31 454.548 361.99 454.432 362.527 454.199C363.082 453.966 363.503 453.653 363.79 453.259C364.076 452.847 364.219 452.373 364.219 451.836ZM387.342 420.898L386.187 447.62H378.829L377.674 420.898H387.342ZM377.432 455.945C377.432 454.656 377.898 453.582 378.829 452.722C379.76 451.845 380.968 451.406 382.454 451.406C383.94 451.406 385.14 451.845 386.053 452.722C386.984 453.582 387.449 454.656 387.449 455.945C387.449 457.234 386.984 458.317 386.053 459.194C385.14 460.054 383.94 460.483 382.454 460.483C380.968 460.483 379.76 460.054 378.829 459.194C377.898 458.317 377.432 457.234 377.432 455.945Z" fill="black" fill-opacity="0.7"/>
<path d="M99.668 489.562H105.039V508.449C105.039 510.624 104.57 512.453 103.633 513.938C102.695 515.409 101.419 516.522 99.8047 517.277C98.1901 518.02 96.3542 518.391 94.2969 518.391C92.2135 518.391 90.3581 518.02 88.7305 517.277C87.1029 516.522 85.8268 515.409 84.9023 513.938C83.9779 512.453 83.5156 510.624 83.5156 508.449V489.562H88.8867V508.449C88.8867 509.777 89.1081 510.865 89.5508 511.711C89.9935 512.544 90.6185 513.163 91.4258 513.566C92.2331 513.97 93.1901 514.172 94.2969 514.172C95.4167 514.172 96.3737 513.97 97.168 513.566C97.9753 513.163 98.5938 512.544 99.0234 511.711C99.4531 510.865 99.668 509.777 99.668 508.449V489.562ZM121.367 512.219C121.367 511.776 121.25 511.379 121.016 511.027C120.781 510.676 120.339 510.357 119.688 510.07C119.049 509.771 118.112 509.491 116.875 509.23C115.781 508.996 114.772 508.703 113.848 508.352C112.923 508 112.129 507.577 111.465 507.082C110.801 506.574 110.28 505.982 109.902 505.305C109.538 504.615 109.355 503.82 109.355 502.922C109.355 502.049 109.544 501.229 109.922 500.461C110.299 499.68 110.846 498.996 111.562 498.41C112.279 497.811 113.151 497.342 114.18 497.004C115.208 496.652 116.367 496.477 117.656 496.477C119.453 496.477 120.996 496.77 122.285 497.355C123.587 497.941 124.583 498.749 125.273 499.777C125.964 500.793 126.309 501.939 126.309 503.215H121.152C121.152 502.655 121.022 502.147 120.762 501.691C120.514 501.236 120.13 500.871 119.609 500.598C119.089 500.311 118.431 500.168 117.637 500.168C116.921 500.168 116.315 500.285 115.82 500.52C115.339 500.754 114.974 501.06 114.727 501.438C114.479 501.815 114.355 502.232 114.355 502.688C114.355 503.026 114.421 503.332 114.551 503.605C114.694 503.866 114.922 504.107 115.234 504.328C115.547 504.549 115.97 504.751 116.504 504.934C117.051 505.116 117.721 505.292 118.516 505.461C120.091 505.773 121.465 506.19 122.637 506.711C123.822 507.219 124.746 507.896 125.41 508.742C126.074 509.589 126.406 510.669 126.406 511.984C126.406 512.922 126.204 513.781 125.801 514.562C125.397 515.331 124.811 516.001 124.043 516.574C123.275 517.147 122.357 517.596 121.289 517.922C120.221 518.234 119.017 518.391 117.676 518.391C115.736 518.391 114.095 518.046 112.754 517.355C111.413 516.652 110.397 515.767 109.707 514.699C109.017 513.618 108.672 512.499 108.672 511.34H113.613C113.652 512.16 113.874 512.818 114.277 513.312C114.681 513.807 115.189 514.165 115.801 514.387C116.426 514.595 117.083 514.699 117.773 514.699C118.555 514.699 119.212 514.595 119.746 514.387C120.28 514.165 120.684 513.872 120.957 513.508C121.23 513.13 121.367 512.701 121.367 512.219ZM139.824 518.391C138.223 518.391 136.784 518.13 135.508 517.609C134.232 517.089 133.145 516.366 132.246 515.441C131.361 514.504 130.677 513.417 130.195 512.18C129.727 510.93 129.492 509.589 129.492 508.156V507.375C129.492 505.747 129.727 504.27 130.195 502.941C130.664 501.6 131.328 500.448 132.188 499.484C133.047 498.521 134.076 497.779 135.273 497.258C136.471 496.737 137.793 496.477 139.238 496.477C140.736 496.477 142.057 496.73 143.203 497.238C144.349 497.733 145.306 498.436 146.074 499.348C146.842 500.259 147.422 501.353 147.812 502.629C148.203 503.892 148.398 505.292 148.398 506.828V508.996H131.836V505.441H143.32V505.051C143.294 504.23 143.138 503.482 142.852 502.805C142.565 502.115 142.122 501.568 141.523 501.164C140.924 500.747 140.15 500.539 139.199 500.539C138.431 500.539 137.76 500.708 137.188 501.047C136.628 501.372 136.159 501.841 135.781 502.453C135.417 503.052 135.143 503.768 134.961 504.602C134.779 505.435 134.688 506.359 134.688 507.375V508.156C134.688 509.042 134.805 509.862 135.039 510.617C135.286 511.372 135.645 512.03 136.113 512.59C136.595 513.137 137.168 513.566 137.832 513.879C138.509 514.178 139.277 514.328 140.137 514.328C141.217 514.328 142.194 514.12 143.066 513.703C143.952 513.273 144.72 512.642 145.371 511.809L147.969 514.504C147.526 515.155 146.927 515.78 146.172 516.379C145.43 516.978 144.531 517.466 143.477 517.844C142.422 518.208 141.204 518.391 139.824 518.391ZM160.898 507.648V507.238C160.898 505.689 161.12 504.263 161.562 502.961C162.005 501.646 162.65 500.507 163.496 499.543C164.342 498.579 165.378 497.831 166.602 497.297C167.826 496.75 169.219 496.477 170.781 496.477C172.37 496.477 173.776 496.75 175 497.297C176.237 497.831 177.279 498.579 178.125 499.543C178.971 500.507 179.616 501.646 180.059 502.961C180.501 504.263 180.723 505.689 180.723 507.238V507.648C180.723 509.185 180.501 510.611 180.059 511.926C179.616 513.228 178.971 514.367 178.125 515.344C177.279 516.307 176.243 517.056 175.02 517.59C173.796 518.124 172.396 518.391 170.82 518.391C169.258 518.391 167.858 518.124 166.621 517.59C165.384 517.056 164.342 516.307 163.496 515.344C162.65 514.367 162.005 513.228 161.562 511.926C161.12 510.611 160.898 509.185 160.898 507.648ZM166.055 507.238V507.648C166.055 508.573 166.146 509.439 166.328 510.246C166.51 511.053 166.79 511.763 167.168 512.375C167.546 512.987 168.034 513.469 168.633 513.82C169.245 514.159 169.974 514.328 170.82 514.328C171.654 514.328 172.37 514.159 172.969 513.82C173.568 513.469 174.056 512.987 174.434 512.375C174.824 511.763 175.111 511.053 175.293 510.246C175.475 509.439 175.566 508.573 175.566 507.648V507.238C175.566 506.327 175.475 505.474 175.293 504.68C175.111 503.872 174.824 503.163 174.434 502.551C174.056 501.926 173.561 501.438 172.949 501.086C172.35 500.721 171.628 500.539 170.781 500.539C169.948 500.539 169.232 500.721 168.633 501.086C168.034 501.438 167.546 501.926 167.168 502.551C166.79 503.163 166.51 503.872 166.328 504.68C166.146 505.474 166.055 506.327 166.055 507.238ZM194.414 488H199.59V513.332L199.082 518H194.414V488ZM213.184 507.219V507.629C213.184 509.204 213.008 510.65 212.656 511.965C212.318 513.28 211.803 514.419 211.113 515.383C210.423 516.333 209.564 517.076 208.535 517.609C207.52 518.13 206.328 518.391 204.961 518.391C203.659 518.391 202.526 518.137 201.562 517.629C200.612 517.121 199.811 516.405 199.16 515.48C198.509 514.543 197.988 513.443 197.598 512.18C197.207 510.904 196.914 509.51 196.719 508V506.887C196.914 505.363 197.207 503.97 197.598 502.707C197.988 501.444 198.509 500.344 199.16 499.406C199.811 498.469 200.612 497.746 201.562 497.238C202.513 496.73 203.633 496.477 204.922 496.477C206.302 496.477 207.507 496.743 208.535 497.277C209.577 497.798 210.436 498.54 211.113 499.504C211.803 500.454 212.318 501.587 212.656 502.902C213.008 504.204 213.184 505.643 213.184 507.219ZM208.008 507.629V507.219C208.008 506.32 207.936 505.474 207.793 504.68C207.65 503.872 207.415 503.163 207.09 502.551C206.764 501.939 206.322 501.457 205.762 501.105C205.202 500.754 204.499 500.578 203.652 500.578C202.845 500.578 202.155 500.715 201.582 500.988C201.022 501.262 200.553 501.639 200.176 502.121C199.811 502.603 199.525 503.169 199.316 503.82C199.121 504.471 198.991 505.174 198.926 505.93V508.977C199.017 509.979 199.232 510.884 199.57 511.691C199.909 512.486 200.41 513.117 201.074 513.586C201.751 514.055 202.624 514.289 203.691 514.289C204.525 514.289 205.221 514.126 205.781 513.801C206.341 513.462 206.784 512.993 207.109 512.395C207.435 511.783 207.663 511.073 207.793 510.266C207.936 509.458 208.008 508.579 208.008 507.629ZM216.016 507.648V507.238C216.016 505.689 216.237 504.263 216.68 502.961C217.122 501.646 217.767 500.507 218.613 499.543C219.46 498.579 220.495 497.831 221.719 497.297C222.943 496.75 224.336 496.477 225.898 496.477C227.487 496.477 228.893 496.75 230.117 497.297C231.354 497.831 232.396 498.579 233.242 499.543C234.089 500.507 234.733 501.646 235.176 502.961C235.618 504.263 235.84 505.689 235.84 507.238V507.648C235.84 509.185 235.618 510.611 235.176 511.926C234.733 513.228 234.089 514.367 233.242 515.344C232.396 516.307 231.361 517.056 230.137 517.59C228.913 518.124 227.513 518.391 225.938 518.391C224.375 518.391 222.975 518.124 221.738 517.59C220.501 517.056 219.46 516.307 218.613 515.344C217.767 514.367 217.122 513.228 216.68 511.926C216.237 510.611 216.016 509.185 216.016 507.648ZM221.172 507.238V507.648C221.172 508.573 221.263 509.439 221.445 510.246C221.628 511.053 221.908 511.763 222.285 512.375C222.663 512.987 223.151 513.469 223.75 513.82C224.362 514.159 225.091 514.328 225.938 514.328C226.771 514.328 227.487 514.159 228.086 513.82C228.685 513.469 229.173 512.987 229.551 512.375C229.941 511.763 230.228 511.053 230.41 510.246C230.592 509.439 230.684 508.573 230.684 507.648V507.238C230.684 506.327 230.592 505.474 230.41 504.68C230.228 503.872 229.941 503.163 229.551 502.551C229.173 501.926 228.678 501.438 228.066 501.086C227.467 500.721 226.745 500.539 225.898 500.539C225.065 500.539 224.349 500.721 223.75 501.086C223.151 501.438 222.663 501.926 222.285 502.551C221.908 503.163 221.628 503.872 221.445 504.68C221.263 505.474 221.172 506.327 221.172 507.238ZM249.59 496.867V500.578H237.48V496.867H249.59ZM240.723 491.672H245.898V511.906C245.898 512.531 245.983 513.013 246.152 513.352C246.322 513.69 246.576 513.918 246.914 514.035C247.253 514.152 247.656 514.211 248.125 514.211C248.464 514.211 248.776 514.191 249.062 514.152C249.349 514.113 249.59 514.074 249.785 514.035L249.805 517.902C249.375 518.046 248.887 518.163 248.34 518.254C247.806 518.345 247.201 518.391 246.523 518.391C245.365 518.391 244.349 518.195 243.477 517.805C242.604 517.401 241.927 516.757 241.445 515.871C240.964 514.973 240.723 513.788 240.723 512.316V491.672ZM264.668 513.508V503.762C264.668 503.046 264.544 502.427 264.297 501.906C264.049 501.385 263.672 500.982 263.164 500.695C262.656 500.409 262.012 500.266 261.23 500.266C260.54 500.266 259.935 500.383 259.414 500.617C258.906 500.852 258.516 501.184 258.242 501.613C257.969 502.03 257.832 502.512 257.832 503.059H252.656C252.656 502.186 252.865 501.359 253.281 500.578C253.698 499.784 254.29 499.081 255.059 498.469C255.84 497.844 256.771 497.355 257.852 497.004C258.945 496.652 260.169 496.477 261.523 496.477C263.125 496.477 264.551 496.75 265.801 497.297C267.064 497.831 268.053 498.638 268.77 499.719C269.499 500.799 269.863 502.16 269.863 503.801V513.02C269.863 514.074 269.928 514.979 270.059 515.734C270.202 516.477 270.41 517.121 270.684 517.668V518H265.43C265.182 517.466 264.993 516.789 264.863 515.969C264.733 515.135 264.668 514.315 264.668 513.508ZM265.391 505.129L265.43 508.195H262.168C261.361 508.195 260.651 508.28 260.039 508.449C259.427 508.605 258.926 508.84 258.535 509.152C258.145 509.452 257.852 509.816 257.656 510.246C257.461 510.663 257.363 511.138 257.363 511.672C257.363 512.193 257.48 512.661 257.715 513.078C257.962 513.495 258.314 513.827 258.77 514.074C259.238 514.309 259.785 514.426 260.41 514.426C261.322 514.426 262.116 514.243 262.793 513.879C263.47 513.501 263.997 513.046 264.375 512.512C264.753 511.978 264.954 511.47 264.98 510.988L266.465 513.215C266.283 513.749 266.009 514.315 265.645 514.914C265.28 515.513 264.811 516.073 264.238 516.594C263.665 517.115 262.975 517.544 262.168 517.883C261.361 518.221 260.423 518.391 259.355 518.391C257.988 518.391 256.764 518.117 255.684 517.57C254.603 517.023 253.75 516.275 253.125 515.324C252.5 514.374 252.188 513.293 252.188 512.082C252.188 510.962 252.396 509.973 252.812 509.113C253.229 508.254 253.848 507.531 254.668 506.945C255.488 506.346 256.504 505.897 257.715 505.598C258.939 505.285 260.339 505.129 261.914 505.129H265.391ZM265.781 488.176L268.848 488.391C268.848 489.341 268.652 490.201 268.262 490.969C267.884 491.724 267.37 492.323 266.719 492.766C266.068 493.208 265.319 493.43 264.473 493.43C263.848 493.43 263.307 493.345 262.852 493.176C262.409 493.007 261.999 492.805 261.621 492.57C261.257 492.336 260.879 492.134 260.488 491.965C260.098 491.783 259.642 491.691 259.121 491.691C258.652 491.691 258.249 491.867 257.91 492.219C257.585 492.57 257.422 493.046 257.422 493.645L254.336 493.488C254.336 492.551 254.525 491.698 254.902 490.93C255.28 490.161 255.794 489.549 256.445 489.094C257.109 488.638 257.865 488.41 258.711 488.41C259.245 488.41 259.727 488.495 260.156 488.664C260.599 488.833 261.022 489.035 261.426 489.27C261.829 489.491 262.24 489.693 262.656 489.875C263.086 490.044 263.548 490.129 264.043 490.129C264.525 490.129 264.935 489.953 265.273 489.602C265.612 489.25 265.781 488.775 265.781 488.176ZM273.594 507.648V507.238C273.594 505.689 273.815 504.263 274.258 502.961C274.701 501.646 275.345 500.507 276.191 499.543C277.038 498.579 278.073 497.831 279.297 497.297C280.521 496.75 281.914 496.477 283.477 496.477C285.065 496.477 286.471 496.75 287.695 497.297C288.932 497.831 289.974 498.579 290.82 499.543C291.667 500.507 292.311 501.646 292.754 502.961C293.197 504.263 293.418 505.689 293.418 507.238V507.648C293.418 509.185 293.197 510.611 292.754 511.926C292.311 513.228 291.667 514.367 290.82 515.344C289.974 516.307 288.939 517.056 287.715 517.59C286.491 518.124 285.091 518.391 283.516 518.391C281.953 518.391 280.553 518.124 279.316 517.59C278.079 517.056 277.038 516.307 276.191 515.344C275.345 514.367 274.701 513.228 274.258 511.926C273.815 510.611 273.594 509.185 273.594 507.648ZM278.75 507.238V507.648C278.75 508.573 278.841 509.439 279.023 510.246C279.206 511.053 279.486 511.763 279.863 512.375C280.241 512.987 280.729 513.469 281.328 513.82C281.94 514.159 282.669 514.328 283.516 514.328C284.349 514.328 285.065 514.159 285.664 513.82C286.263 513.469 286.751 512.987 287.129 512.375C287.52 511.763 287.806 511.053 287.988 510.246C288.171 509.439 288.262 508.573 288.262 507.648V507.238C288.262 506.327 288.171 505.474 287.988 504.68C287.806 503.872 287.52 503.163 287.129 502.551C286.751 501.926 286.257 501.438 285.645 501.086C285.046 500.721 284.323 500.539 283.477 500.539C282.643 500.539 281.927 500.721 281.328 501.086C280.729 501.438 280.241 501.926 279.863 502.551C279.486 503.163 279.206 503.872 279.023 504.68C278.841 505.474 278.75 506.327 278.75 507.238ZM319.805 513.508V488H325V518H320.312L319.805 513.508ZM306.23 507.688V507.277C306.23 505.663 306.413 504.198 306.777 502.883C307.155 501.555 307.702 500.415 308.418 499.465C309.134 498.514 310 497.779 311.016 497.258C312.044 496.737 313.21 496.477 314.512 496.477C315.775 496.477 316.875 496.73 317.812 497.238C318.763 497.746 319.57 498.469 320.234 499.406C320.911 500.344 321.452 501.457 321.855 502.746C322.259 504.022 322.552 505.428 322.734 506.965V508.078C322.552 509.576 322.259 510.949 321.855 512.199C321.452 513.449 320.911 514.543 320.234 515.48C319.57 516.405 318.763 517.121 317.812 517.629C316.862 518.137 315.749 518.391 314.473 518.391C313.184 518.391 312.025 518.124 310.996 517.59C309.98 517.056 309.115 516.307 308.398 515.344C307.695 514.38 307.155 513.247 306.777 511.945C306.413 510.643 306.23 509.224 306.23 507.688ZM311.406 507.277V507.688C311.406 508.599 311.484 509.452 311.641 510.246C311.797 511.04 312.051 511.743 312.402 512.355C312.754 512.954 313.203 513.423 313.75 513.762C314.31 514.1 314.987 514.27 315.781 514.27C316.797 514.27 317.63 514.048 318.281 513.605C318.945 513.15 319.46 512.531 319.824 511.75C320.189 510.956 320.423 510.064 320.527 509.074V506.008C320.475 505.227 320.339 504.504 320.117 503.84C319.909 503.176 319.609 502.603 319.219 502.121C318.841 501.639 318.372 501.262 317.812 500.988C317.253 500.715 316.589 500.578 315.82 500.578C315.026 500.578 314.349 500.754 313.789 501.105C313.229 501.444 312.773 501.919 312.422 502.531C312.07 503.143 311.81 503.853 311.641 504.66C311.484 505.467 311.406 506.34 311.406 507.277ZM339.16 518.391C337.559 518.391 336.12 518.13 334.844 517.609C333.568 517.089 332.48 516.366 331.582 515.441C330.697 514.504 330.013 513.417 329.531 512.18C329.062 510.93 328.828 509.589 328.828 508.156V507.375C328.828 505.747 329.062 504.27 329.531 502.941C330 501.6 330.664 500.448 331.523 499.484C332.383 498.521 333.411 497.779 334.609 497.258C335.807 496.737 337.129 496.477 338.574 496.477C340.072 496.477 341.393 496.73 342.539 497.238C343.685 497.733 344.642 498.436 345.41 499.348C346.178 500.259 346.758 501.353 347.148 502.629C347.539 503.892 347.734 505.292 347.734 506.828V508.996H331.172V505.441H342.656V505.051C342.63 504.23 342.474 503.482 342.188 502.805C341.901 502.115 341.458 501.568 340.859 501.164C340.26 500.747 339.486 500.539 338.535 500.539C337.767 500.539 337.096 500.708 336.523 501.047C335.964 501.372 335.495 501.841 335.117 502.453C334.753 503.052 334.479 503.768 334.297 504.602C334.115 505.435 334.023 506.359 334.023 507.375V508.156C334.023 509.042 334.141 509.862 334.375 510.617C334.622 511.372 334.98 512.03 335.449 512.59C335.931 513.137 336.504 513.566 337.168 513.879C337.845 514.178 338.613 514.328 339.473 514.328C340.553 514.328 341.53 514.12 342.402 513.703C343.288 513.273 344.056 512.642 344.707 511.809L347.305 514.504C346.862 515.155 346.263 515.78 345.508 516.379C344.766 516.978 343.867 517.466 342.812 517.844C341.758 518.208 340.54 518.391 339.16 518.391ZM43.5742 560.508V550.762C43.5742 550.046 43.4505 549.427 43.2031 548.906C42.9557 548.385 42.5781 547.982 42.0703 547.695C41.5625 547.409 40.918 547.266 40.1367 547.266C39.4466 547.266 38.8411 547.383 38.3203 547.617C37.8125 547.852 37.4219 548.184 37.1484 548.613C36.875 549.03 36.7383 549.512 36.7383 550.059H31.5625C31.5625 549.186 31.7708 548.359 32.1875 547.578C32.6042 546.784 33.1966 546.081 33.9648 545.469C34.7461 544.844 35.6771 544.355 36.7578 544.004C37.8516 543.652 39.0755 543.477 40.4297 543.477C42.0312 543.477 43.457 543.75 44.707 544.297C45.9701 544.831 46.9596 545.638 47.6758 546.719C48.4049 547.799 48.7695 549.16 48.7695 550.801V560.02C48.7695 561.074 48.8346 561.979 48.9648 562.734C49.1081 563.477 49.3164 564.121 49.5898 564.668V565H44.3359C44.0885 564.466 43.8997 563.789 43.7695 562.969C43.6393 562.135 43.5742 561.315 43.5742 560.508ZM44.2969 552.129L44.3359 555.195H41.0742C40.2669 555.195 39.5573 555.28 38.9453 555.449C38.3333 555.605 37.832 555.84 37.4414 556.152C37.0508 556.452 36.7578 556.816 36.5625 557.246C36.3672 557.663 36.2695 558.138 36.2695 558.672C36.2695 559.193 36.3867 559.661 36.6211 560.078C36.8685 560.495 37.2201 560.827 37.6758 561.074C38.1445 561.309 38.6914 561.426 39.3164 561.426C40.2279 561.426 41.0221 561.243 41.6992 560.879C42.3763 560.501 42.9036 560.046 43.2812 559.512C43.6589 558.978 43.8607 558.47 43.8867 557.988L45.3711 560.215C45.1888 560.749 44.9154 561.315 44.5508 561.914C44.1862 562.513 43.7174 563.073 43.1445 563.594C42.5716 564.115 41.8815 564.544 41.0742 564.883C40.2669 565.221 39.3294 565.391 38.2617 565.391C36.8945 565.391 35.6706 565.117 34.5898 564.57C33.5091 564.023 32.6562 563.275 32.0312 562.324C31.4062 561.374 31.0938 560.293 31.0938 559.082C31.0938 557.962 31.3021 556.973 31.7188 556.113C32.1354 555.254 32.7539 554.531 33.5742 553.945C34.3945 553.346 35.4102 552.897 36.6211 552.598C37.8451 552.285 39.2448 552.129 40.8203 552.129H44.2969ZM63.418 543.867V547.578H51.3086V543.867H63.418ZM54.5508 538.672H59.7266V558.906C59.7266 559.531 59.8112 560.013 59.9805 560.352C60.1497 560.69 60.4036 560.918 60.7422 561.035C61.0807 561.152 61.4844 561.211 61.9531 561.211C62.2917 561.211 62.6042 561.191 62.8906 561.152C63.1771 561.113 63.418 561.074 63.6133 561.035L63.6328 564.902C63.2031 565.046 62.7148 565.163 62.168 565.254C61.6341 565.345 61.0286 565.391 60.3516 565.391C59.1927 565.391 58.1771 565.195 57.3047 564.805C56.4323 564.401 55.7552 563.757 55.2734 562.871C54.7917 561.973 54.5508 560.788 54.5508 559.316V538.672ZM79.4336 559.98V543.867H84.6289V565H79.7461L79.4336 559.98ZM80.0977 555.605L81.6992 555.566C81.6992 556.986 81.543 558.294 81.2305 559.492C80.918 560.69 80.4297 561.732 79.7656 562.617C79.1146 563.49 78.2878 564.173 77.2852 564.668C76.2826 565.15 75.0977 565.391 73.7305 565.391C72.6888 565.391 71.7383 565.247 70.8789 564.961C70.0195 564.661 69.2773 564.199 68.6523 563.574C68.0404 562.936 67.5651 562.122 67.2266 561.133C66.888 560.13 66.7188 558.926 66.7188 557.52V543.867H71.875V557.559C71.875 558.262 71.9531 558.848 72.1094 559.316C72.2786 559.785 72.5065 560.169 72.793 560.469C73.0924 560.755 73.4375 560.964 73.8281 561.094C74.2318 561.211 74.6615 561.27 75.1172 561.27C76.3672 561.27 77.3503 561.022 78.0664 560.527C78.7956 560.02 79.3164 559.342 79.6289 558.496C79.9414 557.637 80.0977 556.673 80.0977 555.605ZM100.84 560.508V550.762C100.84 550.046 100.716 549.427 100.469 548.906C100.221 548.385 99.8438 547.982 99.3359 547.695C98.8281 547.409 98.1836 547.266 97.4023 547.266C96.7122 547.266 96.1068 547.383 95.5859 547.617C95.0781 547.852 94.6875 548.184 94.4141 548.613C94.1406 549.03 94.0039 549.512 94.0039 550.059H88.8281C88.8281 549.186 89.0365 548.359 89.4531 547.578C89.8698 546.784 90.4622 546.081 91.2305 545.469C92.0117 544.844 92.9427 544.355 94.0234 544.004C95.1172 543.652 96.3411 543.477 97.6953 543.477C99.2969 543.477 100.723 543.75 101.973 544.297C103.236 544.831 104.225 545.638 104.941 546.719C105.671 547.799 106.035 549.16 106.035 550.801V560.02C106.035 561.074 106.1 561.979 106.23 562.734C106.374 563.477 106.582 564.121 106.855 564.668V565H101.602C101.354 564.466 101.165 563.789 101.035 562.969C100.905 562.135 100.84 561.315 100.84 560.508ZM101.562 552.129L101.602 555.195H98.3398C97.5326 555.195 96.8229 555.28 96.2109 555.449C95.599 555.605 95.0977 555.84 94.707 556.152C94.3164 556.452 94.0234 556.816 93.8281 557.246C93.6328 557.663 93.5352 558.138 93.5352 558.672C93.5352 559.193 93.6523 559.661 93.8867 560.078C94.1341 560.495 94.4857 560.827 94.9414 561.074C95.4102 561.309 95.957 561.426 96.582 561.426C97.4935 561.426 98.2878 561.243 98.9648 560.879C99.6419 560.501 100.169 560.046 100.547 559.512C100.924 558.978 101.126 558.47 101.152 557.988L102.637 560.215C102.454 560.749 102.181 561.315 101.816 561.914C101.452 562.513 100.983 563.073 100.41 563.594C99.8372 564.115 99.1471 564.544 98.3398 564.883C97.5326 565.221 96.5951 565.391 95.5273 565.391C94.1602 565.391 92.9362 565.117 91.8555 564.57C90.7747 564.023 89.9219 563.275 89.2969 562.324C88.6719 561.374 88.3594 560.293 88.3594 559.082C88.3594 557.962 88.5677 556.973 88.9844 556.113C89.401 555.254 90.0195 554.531 90.8398 553.945C91.6602 553.346 92.6758 552.897 93.8867 552.598C95.1107 552.285 96.5104 552.129 98.0859 552.129H101.562ZM116.152 535V565H110.977V535H116.152ZM126.543 543.867V565H121.367V543.867H126.543ZM121.016 538.34C121.016 537.572 121.276 536.934 121.797 536.426C122.331 535.918 123.047 535.664 123.945 535.664C124.844 535.664 125.553 535.918 126.074 536.426C126.608 536.934 126.875 537.572 126.875 538.34C126.875 539.095 126.608 539.727 126.074 540.234C125.553 540.742 124.844 540.996 123.945 540.996C123.047 540.996 122.331 540.742 121.797 540.234C121.276 539.727 121.016 539.095 121.016 538.34ZM148.027 560.938V565H132.129V560.938H148.027ZM147.656 546.953L134.062 565H130.664V561.816L144.18 543.867H147.656V546.953ZM145.762 543.867V547.949H130.938V543.867H145.762ZM163.34 560.508V550.762C163.34 550.046 163.216 549.427 162.969 548.906C162.721 548.385 162.344 547.982 161.836 547.695C161.328 547.409 160.684 547.266 159.902 547.266C159.212 547.266 158.607 547.383 158.086 547.617C157.578 547.852 157.188 548.184 156.914 548.613C156.641 549.03 156.504 549.512 156.504 550.059H151.328C151.328 549.186 151.536 548.359 151.953 547.578C152.37 546.784 152.962 546.081 153.73 545.469C154.512 544.844 155.443 544.355 156.523 544.004C157.617 543.652 158.841 543.477 160.195 543.477C161.797 543.477 163.223 543.75 164.473 544.297C165.736 544.831 166.725 545.638 167.441 546.719C168.171 547.799 168.535 549.16 168.535 550.801V560.02C168.535 561.074 168.6 561.979 168.73 562.734C168.874 563.477 169.082 564.121 169.355 564.668V565H164.102C163.854 564.466 163.665 563.789 163.535 562.969C163.405 562.135 163.34 561.315 163.34 560.508ZM164.062 552.129L164.102 555.195H160.84C160.033 555.195 159.323 555.28 158.711 555.449C158.099 555.605 157.598 555.84 157.207 556.152C156.816 556.452 156.523 556.816 156.328 557.246C156.133 557.663 156.035 558.138 156.035 558.672C156.035 559.193 156.152 559.661 156.387 560.078C156.634 560.495 156.986 560.827 157.441 561.074C157.91 561.309 158.457 561.426 159.082 561.426C159.993 561.426 160.788 561.243 161.465 560.879C162.142 560.501 162.669 560.046 163.047 559.512C163.424 558.978 163.626 558.47 163.652 557.988L165.137 560.215C164.954 560.749 164.681 561.315 164.316 561.914C163.952 562.513 163.483 563.073 162.91 563.594C162.337 564.115 161.647 564.544 160.84 564.883C160.033 565.221 159.095 565.391 158.027 565.391C156.66 565.391 155.436 565.117 154.355 564.57C153.275 564.023 152.422 563.275 151.797 562.324C151.172 561.374 150.859 560.293 150.859 559.082C150.859 557.962 151.068 556.973 151.484 556.113C151.901 555.254 152.52 554.531 153.34 553.945C154.16 553.346 155.176 552.897 156.387 552.598C157.611 552.285 159.01 552.129 160.586 552.129H164.062ZM178.34 548.184V565H173.184V543.867H178.066L178.34 548.184ZM184.766 543.73L184.688 548.535C184.401 548.483 184.076 548.444 183.711 548.418C183.359 548.392 183.027 548.379 182.715 548.379C181.921 548.379 181.224 548.49 180.625 548.711C180.026 548.919 179.525 549.225 179.121 549.629C178.73 550.033 178.431 550.527 178.223 551.113C178.014 551.686 177.897 552.337 177.871 553.066L176.758 552.93C176.758 551.589 176.895 550.345 177.168 549.199C177.441 548.053 177.839 547.051 178.359 546.191C178.88 545.332 179.531 544.668 180.312 544.199C181.107 543.717 182.018 543.477 183.047 543.477C183.333 543.477 183.639 543.503 183.965 543.555C184.303 543.594 184.57 543.652 184.766 543.73ZM202.617 548.379V565H197.461V543.867H202.305L202.617 548.379ZM201.797 553.672H200.273C200.286 552.135 200.495 550.742 200.898 549.492C201.302 548.242 201.868 547.168 202.598 546.27C203.34 545.371 204.219 544.681 205.234 544.199C206.25 543.717 207.383 543.477 208.633 543.477C209.648 543.477 210.566 543.62 211.387 543.906C212.207 544.193 212.91 544.648 213.496 545.273C214.095 545.898 214.551 546.719 214.863 547.734C215.189 548.737 215.352 549.974 215.352 551.445V565H210.156V551.406C210.156 550.443 210.013 549.681 209.727 549.121C209.453 548.561 209.049 548.164 208.516 547.93C207.995 547.695 207.35 547.578 206.582 547.578C205.788 547.578 205.091 547.741 204.492 548.066C203.906 548.379 203.411 548.815 203.008 549.375C202.617 549.935 202.318 550.579 202.109 551.309C201.901 552.038 201.797 552.826 201.797 553.672ZM231.543 560.508V550.762C231.543 550.046 231.419 549.427 231.172 548.906C230.924 548.385 230.547 547.982 230.039 547.695C229.531 547.409 228.887 547.266 228.105 547.266C227.415 547.266 226.81 547.383 226.289 547.617C225.781 547.852 225.391 548.184 225.117 548.613C224.844 549.03 224.707 549.512 224.707 550.059H219.531C219.531 549.186 219.74 548.359 220.156 547.578C220.573 546.784 221.165 546.081 221.934 545.469C222.715 544.844 223.646 544.355 224.727 544.004C225.82 543.652 227.044 543.477 228.398 543.477C230 543.477 231.426 543.75 232.676 544.297C233.939 544.831 234.928 545.638 235.645 546.719C236.374 547.799 236.738 549.16 236.738 550.801V560.02C236.738 561.074 236.803 561.979 236.934 562.734C237.077 563.477 237.285 564.121 237.559 564.668V565H232.305C232.057 564.466 231.868 563.789 231.738 562.969C231.608 562.135 231.543 561.315 231.543 560.508ZM232.266 552.129L232.305 555.195H229.043C228.236 555.195 227.526 555.28 226.914 555.449C226.302 555.605 225.801 555.84 225.41 556.152C225.02 556.452 224.727 556.816 224.531 557.246C224.336 557.663 224.238 558.138 224.238 558.672C224.238 559.193 224.355 559.661 224.59 560.078C224.837 560.495 225.189 560.827 225.645 561.074C226.113 561.309 226.66 561.426 227.285 561.426C228.197 561.426 228.991 561.243 229.668 560.879C230.345 560.501 230.872 560.046 231.25 559.512C231.628 558.978 231.829 558.47 231.855 557.988L233.34 560.215C233.158 560.749 232.884 561.315 232.52 561.914C232.155 562.513 231.686 563.073 231.113 563.594C230.54 564.115 229.85 564.544 229.043 564.883C228.236 565.221 227.298 565.391 226.23 565.391C224.863 565.391 223.639 565.117 222.559 564.57C221.478 564.023 220.625 563.275 220 562.324C219.375 561.374 219.062 560.293 219.062 559.082C219.062 557.962 219.271 556.973 219.688 556.113C220.104 555.254 220.723 554.531 221.543 553.945C222.363 553.346 223.379 552.897 224.59 552.598C225.814 552.285 227.214 552.129 228.789 552.129H232.266ZM253.008 559.219C253.008 558.776 252.891 558.379 252.656 558.027C252.422 557.676 251.979 557.357 251.328 557.07C250.69 556.771 249.753 556.491 248.516 556.23C247.422 555.996 246.413 555.703 245.488 555.352C244.564 555 243.77 554.577 243.105 554.082C242.441 553.574 241.921 552.982 241.543 552.305C241.178 551.615 240.996 550.82 240.996 549.922C240.996 549.049 241.185 548.229 241.562 547.461C241.94 546.68 242.487 545.996 243.203 545.41C243.919 544.811 244.792 544.342 245.82 544.004C246.849 543.652 248.008 543.477 249.297 543.477C251.094 543.477 252.637 543.77 253.926 544.355C255.228 544.941 256.224 545.749 256.914 546.777C257.604 547.793 257.949 548.939 257.949 550.215H252.793C252.793 549.655 252.663 549.147 252.402 548.691C252.155 548.236 251.771 547.871 251.25 547.598C250.729 547.311 250.072 547.168 249.277 547.168C248.561 547.168 247.956 547.285 247.461 547.52C246.979 547.754 246.615 548.06 246.367 548.438C246.12 548.815 245.996 549.232 245.996 549.688C245.996 550.026 246.061 550.332 246.191 550.605C246.335 550.866 246.562 551.107 246.875 551.328C247.188 551.549 247.611 551.751 248.145 551.934C248.691 552.116 249.362 552.292 250.156 552.461C251.732 552.773 253.105 553.19 254.277 553.711C255.462 554.219 256.387 554.896 257.051 555.742C257.715 556.589 258.047 557.669 258.047 558.984C258.047 559.922 257.845 560.781 257.441 561.562C257.038 562.331 256.452 563.001 255.684 563.574C254.915 564.147 253.997 564.596 252.93 564.922C251.862 565.234 250.658 565.391 249.316 565.391C247.376 565.391 245.736 565.046 244.395 564.355C243.053 563.652 242.038 562.767 241.348 561.699C240.658 560.618 240.312 559.499 240.312 558.34H245.254C245.293 559.16 245.514 559.818 245.918 560.312C246.322 560.807 246.829 561.165 247.441 561.387C248.066 561.595 248.724 561.699 249.414 561.699C250.195 561.699 250.853 561.595 251.387 561.387C251.921 561.165 252.324 560.872 252.598 560.508C252.871 560.13 253.008 559.701 253.008 559.219ZM271.016 554.648V554.238C271.016 552.689 271.237 551.263 271.68 549.961C272.122 548.646 272.767 547.507 273.613 546.543C274.46 545.579 275.495 544.831 276.719 544.297C277.943 543.75 279.336 543.477 280.898 543.477C282.487 543.477 283.893 543.75 285.117 544.297C286.354 544.831 287.396 545.579 288.242 546.543C289.089 547.507 289.733 548.646 290.176 549.961C290.618 551.263 290.84 552.689 290.84 554.238V554.648C290.84 556.185 290.618 557.611 290.176 558.926C289.733 560.228 289.089 561.367 288.242 562.344C287.396 563.307 286.361 564.056 285.137 564.59C283.913 565.124 282.513 565.391 280.938 565.391C279.375 565.391 277.975 565.124 276.738 564.59C275.501 564.056 274.46 563.307 273.613 562.344C272.767 561.367 272.122 560.228 271.68 558.926C271.237 557.611 271.016 556.185 271.016 554.648ZM276.172 554.238V554.648C276.172 555.573 276.263 556.439 276.445 557.246C276.628 558.053 276.908 558.763 277.285 559.375C277.663 559.987 278.151 560.469 278.75 560.82C279.362 561.159 280.091 561.328 280.938 561.328C281.771 561.328 282.487 561.159 283.086 560.82C283.685 560.469 284.173 559.987 284.551 559.375C284.941 558.763 285.228 558.053 285.41 557.246C285.592 556.439 285.684 555.573 285.684 554.648V554.238C285.684 553.327 285.592 552.474 285.41 551.68C285.228 550.872 284.941 550.163 284.551 549.551C284.173 548.926 283.678 548.438 283.066 548.086C282.467 547.721 281.745 547.539 280.898 547.539C280.065 547.539 279.349 547.721 278.75 548.086C278.151 548.438 277.663 548.926 277.285 549.551C276.908 550.163 276.628 550.872 276.445 551.68C276.263 552.474 276.172 553.327 276.172 554.238ZM299.746 547.93V573.125H294.57V543.867H299.355L299.746 547.93ZM313.32 554.219V554.629C313.32 556.165 313.138 557.591 312.773 558.906C312.422 560.208 311.901 561.348 311.211 562.324C310.521 563.288 309.661 564.043 308.633 564.59C307.617 565.124 306.445 565.391 305.117 565.391C303.815 565.391 302.682 565.143 301.719 564.648C300.755 564.141 299.941 563.424 299.277 562.5C298.613 561.576 298.079 560.501 297.676 559.277C297.285 558.04 296.992 556.693 296.797 555.234V553.926C296.992 552.376 297.285 550.97 297.676 549.707C298.079 548.431 298.613 547.331 299.277 546.406C299.941 545.469 300.749 544.746 301.699 544.238C302.663 543.73 303.789 543.477 305.078 543.477C306.419 543.477 307.598 543.73 308.613 544.238C309.642 544.746 310.508 545.475 311.211 546.426C311.914 547.376 312.441 548.509 312.793 549.824C313.145 551.139 313.32 552.604 313.32 554.219ZM308.145 554.629V554.219C308.145 553.281 308.06 552.415 307.891 551.621C307.721 550.814 307.461 550.111 307.109 549.512C306.758 548.9 306.302 548.424 305.742 548.086C305.182 547.747 304.505 547.578 303.711 547.578C302.917 547.578 302.233 547.708 301.66 547.969C301.087 548.229 300.618 548.6 300.254 549.082C299.889 549.564 299.603 550.137 299.395 550.801C299.199 551.452 299.069 552.174 299.004 552.969V556.211C299.121 557.174 299.349 558.04 299.688 558.809C300.026 559.577 300.521 560.189 301.172 560.645C301.836 561.1 302.695 561.328 303.75 561.328C304.544 561.328 305.221 561.152 305.781 560.801C306.341 560.449 306.797 559.967 307.148 559.355C307.5 558.73 307.754 558.014 307.91 557.207C308.066 556.4 308.145 555.54 308.145 554.629ZM325.762 561.328C326.491 561.328 327.142 561.185 327.715 560.898C328.288 560.612 328.743 560.208 329.082 559.688C329.434 559.167 329.622 558.561 329.648 557.871H334.512C334.486 559.303 334.082 560.586 333.301 561.719C332.52 562.852 331.478 563.75 330.176 564.414C328.887 565.065 327.441 565.391 325.84 565.391C324.212 565.391 322.793 565.117 321.582 564.57C320.371 564.023 319.362 563.262 318.555 562.285C317.76 561.309 317.161 560.176 316.758 558.887C316.367 557.598 316.172 556.217 316.172 554.746V554.121C316.172 552.65 316.367 551.27 316.758 549.98C317.161 548.691 317.76 547.559 318.555 546.582C319.362 545.605 320.371 544.844 321.582 544.297C322.793 543.75 324.206 543.477 325.82 543.477C327.526 543.477 329.023 543.809 330.312 544.473C331.615 545.137 332.63 546.074 333.359 547.285C334.102 548.496 334.486 549.922 334.512 551.562H329.648C329.622 550.807 329.453 550.13 329.141 549.531C328.828 548.932 328.385 548.451 327.812 548.086C327.24 547.721 326.543 547.539 325.723 547.539C324.85 547.539 324.121 547.721 323.535 548.086C322.962 548.451 322.513 548.952 322.188 549.59C321.875 550.215 321.654 550.918 321.523 551.699C321.406 552.467 321.348 553.275 321.348 554.121V554.746C321.348 555.605 321.406 556.426 321.523 557.207C321.654 557.988 321.875 558.691 322.188 559.316C322.513 559.928 322.962 560.417 323.535 560.781C324.121 561.146 324.863 561.328 325.762 561.328ZM323.672 565H327.52L327.305 566.113C328.047 566.243 328.724 566.556 329.336 567.051C329.948 567.546 330.254 568.359 330.254 569.492C330.254 570.169 330.111 570.781 329.824 571.328C329.551 571.875 329.134 572.344 328.574 572.734C328.014 573.138 327.318 573.444 326.484 573.652C325.664 573.861 324.707 573.965 323.613 573.965L323.477 571.074C323.945 571.074 324.362 571.016 324.727 570.898C325.104 570.781 325.397 570.592 325.605 570.332C325.827 570.085 325.938 569.766 325.938 569.375C325.938 568.984 325.84 568.678 325.645 568.457C325.449 568.249 325.137 568.086 324.707 567.969C324.29 567.865 323.743 567.793 323.066 567.754L323.672 565ZM337.031 554.648V554.238C337.031 552.689 337.253 551.263 337.695 549.961C338.138 548.646 338.783 547.507 339.629 546.543C340.475 545.579 341.51 544.831 342.734 544.297C343.958 543.75 345.352 543.477 346.914 543.477C348.503 543.477 349.909 543.75 351.133 544.297C352.37 544.831 353.411 545.579 354.258 546.543C355.104 547.507 355.749 548.646 356.191 549.961C356.634 551.263 356.855 552.689 356.855 554.238V554.648C356.855 556.185 356.634 557.611 356.191 558.926C355.749 560.228 355.104 561.367 354.258 562.344C353.411 563.307 352.376 564.056 351.152 564.59C349.928 565.124 348.529 565.391 346.953 565.391C345.391 565.391 343.991 565.124 342.754 564.59C341.517 564.056 340.475 563.307 339.629 562.344C338.783 561.367 338.138 560.228 337.695 558.926C337.253 557.611 337.031 556.185 337.031 554.648ZM342.188 554.238V554.648C342.188 555.573 342.279 556.439 342.461 557.246C342.643 558.053 342.923 558.763 343.301 559.375C343.678 559.987 344.167 560.469 344.766 560.82C345.378 561.159 346.107 561.328 346.953 561.328C347.786 561.328 348.503 561.159 349.102 560.82C349.701 560.469 350.189 559.987 350.566 559.375C350.957 558.763 351.243 558.053 351.426 557.246C351.608 556.439 351.699 555.573 351.699 554.648V554.238C351.699 553.327 351.608 552.474 351.426 551.68C351.243 550.872 350.957 550.163 350.566 549.551C350.189 548.926 349.694 548.438 349.082 548.086C348.483 547.721 347.76 547.539 346.914 547.539C346.081 547.539 345.365 547.721 344.766 548.086C344.167 548.438 343.678 548.926 343.301 549.551C342.923 550.163 342.643 550.872 342.461 551.68C342.279 552.474 342.188 553.327 342.188 554.238ZM351.055 535.176L354.121 535.391C354.121 536.341 353.926 537.201 353.535 537.969C353.158 538.724 352.643 539.323 351.992 539.766C351.341 540.208 350.592 540.43 349.746 540.43C349.121 540.43 348.581 540.345 348.125 540.176C347.682 540.007 347.272 539.805 346.895 539.57C346.53 539.336 346.152 539.134 345.762 538.965C345.371 538.783 344.915 538.691 344.395 538.691C343.926 538.691 343.522 538.867 343.184 539.219C342.858 539.57 342.695 540.046 342.695 540.645L339.609 540.488C339.609 539.551 339.798 538.698 340.176 537.93C340.553 537.161 341.068 536.549 341.719 536.094C342.383 535.638 343.138 535.41 343.984 535.41C344.518 535.41 345 535.495 345.43 535.664C345.872 535.833 346.296 536.035 346.699 536.27C347.103 536.491 347.513 536.693 347.93 536.875C348.359 537.044 348.822 537.129 349.316 537.129C349.798 537.129 350.208 536.953 350.547 536.602C350.885 536.25 351.055 535.775 351.055 535.176ZM370.098 565.391C368.496 565.391 367.057 565.13 365.781 564.609C364.505 564.089 363.418 563.366 362.52 562.441C361.634 561.504 360.951 560.417 360.469 559.18C360 557.93 359.766 556.589 359.766 555.156V554.375C359.766 552.747 360 551.27 360.469 549.941C360.938 548.6 361.602 547.448 362.461 546.484C363.32 545.521 364.349 544.779 365.547 544.258C366.745 543.737 368.066 543.477 369.512 543.477C371.009 543.477 372.331 543.73 373.477 544.238C374.622 544.733 375.579 545.436 376.348 546.348C377.116 547.259 377.695 548.353 378.086 549.629C378.477 550.892 378.672 552.292 378.672 553.828V555.996H362.109V552.441H373.594V552.051C373.568 551.23 373.411 550.482 373.125 549.805C372.839 549.115 372.396 548.568 371.797 548.164C371.198 547.747 370.423 547.539 369.473 547.539C368.704 547.539 368.034 547.708 367.461 548.047C366.901 548.372 366.432 548.841 366.055 549.453C365.69 550.052 365.417 550.768 365.234 551.602C365.052 552.435 364.961 553.359 364.961 554.375V555.156C364.961 556.042 365.078 556.862 365.312 557.617C365.56 558.372 365.918 559.03 366.387 559.59C366.868 560.137 367.441 560.566 368.105 560.879C368.783 561.178 369.551 561.328 370.41 561.328C371.491 561.328 372.467 561.12 373.34 560.703C374.225 560.273 374.993 559.642 375.645 558.809L378.242 561.504C377.799 562.155 377.201 562.78 376.445 563.379C375.703 563.978 374.805 564.466 373.75 564.844C372.695 565.208 371.478 565.391 370.098 565.391ZM393.75 559.219C393.75 558.776 393.633 558.379 393.398 558.027C393.164 557.676 392.721 557.357 392.07 557.07C391.432 556.771 390.495 556.491 389.258 556.23C388.164 555.996 387.155 555.703 386.23 555.352C385.306 555 384.512 554.577 383.848 554.082C383.184 553.574 382.663 552.982 382.285 552.305C381.921 551.615 381.738 550.82 381.738 549.922C381.738 549.049 381.927 548.229 382.305 547.461C382.682 546.68 383.229 545.996 383.945 545.41C384.661 544.811 385.534 544.342 386.562 544.004C387.591 543.652 388.75 543.477 390.039 543.477C391.836 543.477 393.379 543.77 394.668 544.355C395.97 544.941 396.966 545.749 397.656 546.777C398.346 547.793 398.691 548.939 398.691 550.215H393.535C393.535 549.655 393.405 549.147 393.145 548.691C392.897 548.236 392.513 547.871 391.992 547.598C391.471 547.311 390.814 547.168 390.02 547.168C389.303 547.168 388.698 547.285 388.203 547.52C387.721 547.754 387.357 548.06 387.109 548.438C386.862 548.815 386.738 549.232 386.738 549.688C386.738 550.026 386.803 550.332 386.934 550.605C387.077 550.866 387.305 551.107 387.617 551.328C387.93 551.549 388.353 551.751 388.887 551.934C389.434 552.116 390.104 552.292 390.898 552.461C392.474 552.773 393.848 553.19 395.02 553.711C396.204 554.219 397.129 554.896 397.793 555.742C398.457 556.589 398.789 557.669 398.789 558.984C398.789 559.922 398.587 560.781 398.184 561.562C397.78 562.331 397.194 563.001 396.426 563.574C395.658 564.147 394.74 564.596 393.672 564.922C392.604 565.234 391.4 565.391 390.059 565.391C388.118 565.391 386.478 565.046 385.137 564.355C383.796 563.652 382.78 562.767 382.09 561.699C381.4 560.618 381.055 559.499 381.055 558.34H385.996C386.035 559.16 386.257 559.818 386.66 560.312C387.064 560.807 387.572 561.165 388.184 561.387C388.809 561.595 389.466 561.699 390.156 561.699C390.938 561.699 391.595 561.595 392.129 561.387C392.663 561.165 393.066 560.872 393.34 560.508C393.613 560.13 393.75 559.701 393.75 559.219Z" fill="black" fill-opacity="0.55"/>
</svg>
